<?xml version="1.0" encoding="UTF-8" standalone="no"?>
<!-- Created with Inkscape (http://www.inkscape.org/) -->

<svg
   xmlns:dc="http://purl.org/dc/elements/1.1/"
   xmlns:cc="http://creativecommons.org/ns#"
   xmlns:rdf="http://www.w3.org/1999/02/22-rdf-syntax-ns#"
   xmlns:svg="http://www.w3.org/2000/svg"
   xmlns="http://www.w3.org/2000/svg"
   xmlns:sodipodi="http://sodipodi.sourceforge.net/DTD/sodipodi-0.dtd"
   xmlns:inkscape="http://www.inkscape.org/namespaces/inkscape"
   width="1000"
   height="1000"
   id="svg3092"
   version="1.1"
   inkscape:version="0.48.2 r9819"
   sodipodi:docname="Lig Lower FFI.svg">
  <defs
     id="defs5498" />
  <sodipodi:namedview
     inkscape:window-height="852"
     inkscape:window-width="1440"
     inkscape:pageshadow="2"
     inkscape:pageopacity="0.0"
     borderopacity="1.0"
     bordercolor="#666666"
     pagecolor="#ffffff"
     id="base"
     showgrid="true"
     showguides="true"
     inkscape:guide-bbox="true"
     inkscape:zoom="0.558333"
     inkscape:cx="719.65975"
     inkscape:cy="586.35333"
     inkscape:window-x="0"
     inkscape:window-y="1"
     inkscape:current-layer="layer1"
     inkscape:window-maximized="0">
    <sodipodi:guide
       orientation="horizontal"
       position="0,240"
       id="guide5596" />
    <inkscape:grid
       type="xygrid"
       id="grid3143"
       empspacing="4"
       visible="true"
       enabled="true"
       snapvisiblegridlinesonly="true"
       spacingx="30px"
       spacingy="30px" />
    <sodipodi:guide
       orientation="0,1"
       position="0,840"
       id="guide3188" />
    <sodipodi:guide
       orientation="0,1"
       position="0,720"
       id="guide3190" />
    <sodipodi:guide
       orientation="1,0"
       position="600,240"
       id="guide3192" />
  </sodipodi:namedview>
  <metadata
     id="metadata5594">
    <rdf:RDF>
      <cc:Work
         rdf:about="">
        <dc:format>image/svg+xml</dc:format>
        <dc:type
           rdf:resource="http://purl.org/dc/dcmitype/StillImage" />
        <dc:title></dc:title>
      </cc:Work>
    </rdf:RDF>
  </metadata>
  <g
     inkscape:label="Layer 1"
     inkscape:groupmode="layer"
     id="layer1">
    <path
       style="fill:#4d4d4d;fill-rule:evenodd;stroke:none"
       d="M 180 40 C 90 40 60 70 60 160 L 60 280 L 0 280 L 0 400 L 60 400 L 60 640 L 0 640 L 0 760 L 270 760 L 270 640 L 210 640 L 210 400 L 330 400 L 390 400 L 390 640 L 330 640 L 330 760 L 600 760 L 600 640 L 540 640 L 540 400 L 660 400 L 660 280 L 540 280 L 540 190 C 540 160 540 160 570 160 L 720 160 L 720 640 L 660 640 L 660 760 L 960 760 L 960 640 L 870 640 L 870 40 L 720 40 L 480 40 C 440.8994 40 420 70 420 100 C 420 70 391.1399 40 360 40 L 180 40 z M 234.71875 160 C 236.3667 159.993 238.125 160 240 160 L 360 160 C 388.125 160 389.89014 159.99951 390 184.71875 C 390.007 186.3667 390 188.125 390 190 L 390 220 L 390 280 L 330 280 L 210 280 L 210 190 C 210 161.875 209.99951 160.10986 234.71875 160 z "
       id="path3526" />
  </g>
</svg>
