<?xml version="1.0" encoding="UTF-8" standalone="no"?>
<!-- Created with Inkscape (http://www.inkscape.org/) -->

<svg
   xmlns:dc="http://purl.org/dc/elements/1.1/"
   xmlns:cc="http://creativecommons.org/ns#"
   xmlns:rdf="http://www.w3.org/1999/02/22-rdf-syntax-ns#"
   xmlns:svg="http://www.w3.org/2000/svg"
   xmlns="http://www.w3.org/2000/svg"
   xmlns:sodipodi="http://sodipodi.sourceforge.net/DTD/sodipodi-0.dtd"
   xmlns:inkscape="http://www.inkscape.org/namespaces/inkscape"
   width="1000"
   height="1000"
   id="svg3092"
   version="1.1"
   inkscape:version="0.48.2 r9819"
   sodipodi:docname="Lower M.svg">
  <defs
     id="defs5498" />
  <sodipodi:namedview
     inkscape:window-height="852"
     inkscape:window-width="1440"
     inkscape:pageshadow="2"
     inkscape:pageopacity="0.0"
     borderopacity="1.0"
     bordercolor="#666666"
     pagecolor="#ffffff"
     id="base"
     showgrid="true"
     showguides="true"
     inkscape:guide-bbox="true"
     inkscape:zoom="0.5"
     inkscape:cx="504.73425"
     inkscape:cy="443.06966"
     inkscape:window-x="69"
     inkscape:window-y="0"
     inkscape:current-layer="layer1"
     inkscape:window-maximized="0">
    <sodipodi:guide
       orientation="horizontal"
       position="0,240"
       id="guide5596" />
    <inkscape:grid
       type="xygrid"
       id="grid3143"
       empspacing="4"
       visible="true"
       enabled="true"
       snapvisiblegridlinesonly="true"
       spacingx="30px"
       spacingy="30px" />
    <sodipodi:guide
       orientation="0,1"
       position="0,840"
       id="guide3188" />
    <sodipodi:guide
       orientation="0,1"
       position="0,720"
       id="guide3190" />
    <sodipodi:guide
       orientation="1,0"
       position="600,240"
       id="guide3192" />
  </sodipodi:namedview>
  <metadata
     id="metadata5594">
    <rdf:RDF>
      <cc:Work
         rdf:about="">
        <dc:format>image/svg+xml</dc:format>
        <dc:type
           rdf:resource="http://purl.org/dc/dcmitype/StillImage" />
        <dc:title />
      </cc:Work>
    </rdf:RDF>
  </metadata>
  <g
     inkscape:label="Layer 1"
     inkscape:groupmode="layer"
     id="layer1">
    <path
       style="fill:#4d4d4d;fill-rule:evenodd;stroke:none"
       d="m 0,280 0,119.9994 59.9997,0 0,240.0012 L 0,640.0006 0,760 l 270.00073,0.002 0,-119.9994 -29.99985,0 0,-240.0012 89.99955,0 c 29.99985,0 29.99985,0 29.99985,29.99985 l 0,209.87295 -29.99985,0.126 0,119.9994 240,0 0,-119.9994 -29.99985,0 0,-240.0012 89.99955,0 c 29.99985,0 29.99985,0 29.99985,29.99985 l 0,210.00135 -29.99985,0 0,119.9994 269.99987,0 0,-119.9994 -59.99968,0 0,-240.0012 c 0,-89.99915 -29.99992,-119.999 -119.99944,-119.999 l -120.0006,0 c -29.99985,0 -59.9997,29.99985 -59.9997,59.9997 0,-29.99985 -29.99985,-59.9997 -59.9997,-59.9997 l -180.0003,0 c -29.99985,0 -59.9997,29.99985 -59.9997,59.9997 l 0,-59.9997 z"
       id="path3723"
       inkscape:connector-curvature="0"
       sodipodi:nodetypes="cccccccccccccccccccccccccccccccccccc" />
  </g>
</svg>
