<?xml version="1.0" encoding="UTF-8" standalone="no"?>
<!-- Created with Inkscape (http://www.inkscape.org/) -->

<svg
   xmlns:dc="http://purl.org/dc/elements/1.1/"
   xmlns:cc="http://creativecommons.org/ns#"
   xmlns:rdf="http://www.w3.org/1999/02/22-rdf-syntax-ns#"
   xmlns:svg="http://www.w3.org/2000/svg"
   xmlns="http://www.w3.org/2000/svg"
   xmlns:sodipodi="http://sodipodi.sourceforge.net/DTD/sodipodi-0.dtd"
   xmlns:inkscape="http://www.inkscape.org/namespaces/inkscape"
   width="1000"
   height="1000"
   id="svg3092"
   version="1.1"
   inkscape:version="0.48.2 r9819"
   sodipodi:docname="Numeral 2.svg">
  <defs
     id="defs5498" />
  <sodipodi:namedview
     inkscape:window-height="852"
     inkscape:window-width="1440"
     inkscape:pageshadow="2"
     inkscape:pageopacity="0.0"
     borderopacity="1.0"
     bordercolor="#666666"
     pagecolor="#ffffff"
     id="base"
     showgrid="true"
     showguides="true"
     inkscape:guide-bbox="true"
     inkscape:zoom="0.6545"
     inkscape:cx="500"
     inkscape:cy="591.83151"
     inkscape:window-x="0"
     inkscape:window-y="0"
     inkscape:current-layer="layer1"
     inkscape:window-maximized="1"
     inkscape:snap-grids="true">
    <sodipodi:guide
       orientation="horizontal"
       position="0,240"
       id="guide5596" />
    <inkscape:grid
       type="xygrid"
       id="grid3143"
       empspacing="4"
       visible="true"
       enabled="true"
       snapvisiblegridlinesonly="true"
       spacingx="30px"
       spacingy="30px" />
    <sodipodi:guide
       orientation="0,1"
       position="0,720"
       id="guide3190" />
    <sodipodi:guide
       orientation="1,0"
       position="600,240"
       id="guide3192" />
  </sodipodi:namedview>
  <metadata
     id="metadata5594">
    <rdf:RDF>
      <cc:Work
         rdf:about="">
        <dc:format>image/svg+xml</dc:format>
        <dc:type
           rdf:resource="http://purl.org/dc/dcmitype/StillImage" />
        <dc:title></dc:title>
      </cc:Work>
    </rdf:RDF>
  </metadata>
  <g
     inkscape:label="Layer 1"
     inkscape:groupmode="layer"
     id="layer1">
    <path
       style="fill:#4d4d4d;fill-rule:evenodd;stroke:none"
       d="M 0,249.99952 0,40 l 119.99973,0 0,89.9998 C 119.99973,69.99991 149.99966,40 209.99952,40 l 210.00021,0.0011 c 81.6933,2.4756 118.27599,45.5513 119.99973,119.99971 l 4.8e-4,180.00029 c -7.84,29.11977 -20.52739,54.60407 -59.99986,59.99989 33.99994,4.00021 53.99987,23.99995 59.99986,59.99989 L 539.99946,640 c 2.52588,91.47881 -46.76725,120.22892 -119.99973,119.99972 l -210.00021,-10e-4 c -59.99986,0 -89.99979,-29.99992 -89.99979,-89.9998 l 0,89.9998 L 0,759.99864 0,549.99912 180,550 c 0,60 0,60 60,60 l 60,0 c 60,0 60.26038,-1.1401 59.75888,-56.17882 -0.58151,-63.8201 0.24173,-63.8201 -59.7584,-63.8201 L 210,490 l 0,-180 90.00048,10e-4 c 60.00013,0 58.71445,0 59.53669,-57.23319 C 360,190 360,190 300,191.56191 l -60,-4e-4 c -59.99986,0 -60,-2e-4 -60,58.43849 z"
       id="path7248"
       inkscape:connector-curvature="0"
       sodipodi:nodetypes="cccccccccccccccccccccccccccccc" />
  </g>
</svg>
