<?xml version="1.0" encoding="UTF-8" standalone="no"?>
<svg
   xmlns:dc="http://purl.org/dc/elements/1.1/"
   xmlns:cc="http://creativecommons.org/ns#"
   xmlns:rdf="http://www.w3.org/1999/02/22-rdf-syntax-ns#"
   xmlns:svg="http://www.w3.org/2000/svg"
   xmlns="http://www.w3.org/2000/svg"
   xmlns:sodipodi="http://sodipodi.sourceforge.net/DTD/sodipodi-0.dtd"
   xmlns:inkscape="http://www.inkscape.org/namespaces/inkscape"
   width="990"
   height="765"
   viewBox="0 0 990 765"
   version="1.1"
   id="svg2"
   inkscape:version="0.48.2 r9819"
   sodipodi:docname="Patent Cure.svg">
  <metadata
     id="metadata27">
    <rdf:RDF>
      <cc:Work
         rdf:about="">
        <dc:format>image/svg+xml</dc:format>
        <dc:type
           rdf:resource="http://purl.org/dc/dcmitype/StillImage" />
        <dc:title>Slice 1</dc:title>
      </cc:Work>
    </rdf:RDF>
  </metadata>
  <sodipodi:namedview
     pagecolor="#ffffff"
     bordercolor="#666666"
     borderopacity="1"
     objecttolerance="10"
     gridtolerance="10"
     guidetolerance="10"
     inkscape:pageopacity="0"
     inkscape:pageshadow="2"
     inkscape:window-width="1440"
     inkscape:window-height="852"
     id="namedview25"
     showgrid="true"
     inkscape:zoom="1"
     inkscape:cx="443.92419"
     inkscape:cy="469.17549"
     inkscape:window-x="0"
     inkscape:window-y="0"
     inkscape:window-maximized="1"
     inkscape:current-layer="Page 1">
    <inkscape:grid
       type="xygrid"
       id="grid3004"
       empspacing="5"
       visible="true"
       enabled="true"
       snapvisiblegridlinesonly="true"
       dotted="false" />
  </sodipodi:namedview>
  <title
     id="title4">Slice 1</title>
  <description
     id="description6">Created with Sketch (http://www.bohemiancoding.com/sketch)</description>
  <defs
     id="defs8" />
  <g
     id="Page 1"
     style="fill:#e0e0e0;fill-rule:evenodd"
     transform="translate(0,-696)">
    <path
       d="m 60,721 0,24.97045 19.607568,-0.0295 0,44.69639 c 0,10.23777 0,10.23777 -10.112933,10.23777 l -19.476749,0 0,-14.98209 -29.964232,0 L 20,825.97045 l 19.976155,0 0.05365,-10.11325 c 0,0 -0.01788,10.11325 9.970195,10.11325 9.988075,0 25.017887,0 39.999996,0 14.982124,0 20.000004,-4.76806 20.000004,-20 l 0,-59.42906 20,-0.57094 0,-24.96999 -70.000004,10e-6 z"
       id="Path 5"
       inkscape:connector-curvature="0"
       style="fill:#4a4a4a"
       sodipodi:nodetypes="cccssccccccsssccccc" />
    <path
       d="m 305,720.97045 c 15.00002,0 35.50008,0 45.25009,0 9.75002,0 9.75002,9.75014 9.75002,9.75014 l 0,-9.75014 20.25003,0 0,34.74998 -30.00005,0 0,-9.75014 -25.25005,0 c -9.75002,0 -9.75002,-0.99975 -9.75002,7.00013 0,7.99987 0,7.99987 9.75002,7.99987 9.75001,0 20.00003,0 35.00007,0 15.00003,0 20.25003,4.74999 20.25003,19.74999 0,15 0,24.48183 0,25.00031 0,15.25017 -5.25,20.24986 -20.25003,20.24986 -15.00004,0 -34.50007,0 -44.75009,0 C 305,825.97045 305,815.72043 305,815.72043 l 0,10.25002 -19.75005,0 0,-35.24986 30.00007,0 0,10.25002 c 0,0 14.50002,0 24.75005,0 10.25002,0 10.25002,0 10.25002,-7.56278 0,-7.56231 0,-7.43722 -10.25002,-7.43722 l -35.00007,0 c -15.00003,0 -19.75005,-5.25033 -19.75005,-20.25033 0,-15 0,-10.25002 0,-24.99985 0,-14.75029 4.75002,-19.74998 19.75005,-19.74998 z m 0,0"
       id="Path 9"
       inkscape:connector-curvature="0"
       style="fill:#4a4a4a" />
    <path
       d="m 140,720.97045 0,24.99984 19.75004,0 0,55.00032 -19.75004,0 0,24.99984 70,0 0,-24.99984 -20.7499,0 19.75004,-15 c 0,0 15.50002,39.99984 50.25009,39.99984 l 15.74977,0 0,-24.99984 -11.24976,0 c -19.50004,0 -34.75007,-30 -34.75007,-30 l 34.75007,-25.00032 11.24976,1.6e-4 0,-24.99984 -60,0 0,24.99984 10,0 -35,25 0,-25.00032 20,3.2e-4 0,-24.99984 z"
       id="Path 10"
       inkscape:connector-curvature="0"
       style="fill:#4a4a4a"
       sodipodi:nodetypes="ccccccccccsccscccccccccccc" />
    <path
       d="m 390.09752,721.08973 c 0,0 74.40977,0.2505 89.33664,0.2505 14.92687,0 20.15126,4.7275 20.15126,19.65593 0,14.92843 0,-7.18611 0,12.76624 0,19.95235 -14.96416,19.95235 -14.96416,19.95235 0,0 14.96416,0 14.96416,15.21372 0,7.19957 0,2.2443 0,17.20845 0,14.96461 -4.98807,19.95235 -20.15126,19.95235 -15.1632,0 -89.33664,-0.2505 -89.33664,-0.2505 l 0,-24.88118 19.90248,0 0,-54.98714 -19.90248,0 0,-24.88118 z m 49.63118,24.94056 0,14.71458 c 0,0 19.95225,0 24.9403,0 4.98807,0 4.98807,0 4.98807,-7.12442 0,-7.12488 0,-7.59016 -4.98807,-7.59016 l -24.9403,0 z m 0,40.15381 0,14.71458 c 0,0 19.95225,0 24.9403,0 4.98807,0 4.98807,0 4.98807,-7.12442 0,-7.12441 0,-7.59016 -4.98807,-7.59016 l -24.9403,0 z m 0,0"
       id="Path 4"
       inkscape:connector-curvature="0"
       style="fill:#4a4a4a" />
    <path
       d="m 380.04983,871 c 0,0 74.58805,0 89.55068,0 14.96263,0 20.19954,4.73836 20.19954,19.70302 l 0,65.29682 c 0,15 -5.00002,20.00016 -20.19954,20.00016 l -89.55068,0 0,-24.94079 19.95017,0 0,-55.11889 -19.95017,0 0,-24.94032 z m 49.75009,24.99984 0,55.00032 c 0,0 20.25004,0 25.25006,0 4.75001,0 4.75001,0 4.75001,-5.00016 l 0,-45 c 0,-5.00016 0,-5.00016 -4.75001,-5.00016 -4.75001,0 -25.25006,0 -25.25006,0 z m 0,0"
       id="path15"
       inkscape:connector-curvature="0"
       style="fill:#4a4a4a" />
    <path
       d="m 270,891.05906 c 0,-15 5.00001,-19.99969 20.00005,-19.99969 5.37073,0 40.00007,0 50.00008,0 10.00003,0 10.00003,9.99984 10.00003,9.99984 l 0,-9.99984 20.00004,0 0,35.00016 -30.00007,0 0,-10.00032 c 0,0 -30.00005,0 -35.00006,0 -5.00002,0 -5.00002,0 -5.00002,5.00016 0,5.00016 -0.36456,39.99984 0,45 0.36456,5.00016 0,5.00016 5.00002,5.00016 l 35.00006,0 0,-15 30.00007,0 c 0,0 0,4.99968 0,19.99968 0,15 -5.00001,20.00016 -20.00004,20.00016 -15.00002,0 -55.32679,0 -60.00011,0 -15.00004,0 -20.00005,-5.00016 -20.00005,-20.00016 0,-15 0,-49.99968 0,-65.00015 z m 0,0"
       id="path17"
       inkscape:connector-curvature="0"
       style="fill:#4a4a4a" />
    <path
       d="m 155.00006,891.05928 c 0,-14.99994 4.99997,-20.00007 19.99994,-20.00007 5.37071,0 39.9999,0 49.99988,0 9.99997,0 9.99997,10.00027 9.99997,10.00027 l 0,-10.00027 19.99995,0 0,35 -29.99992,0 0,-9.9998 c 0,0 -29.99994,0 -34.99993,0 -4.99997,0 -4.99997,0 -4.99997,4.99967 0,5.00013 -0.3646,40.00013 0,45.00026 0.36456,4.99967 0,4.99967 4.99997,4.99967 l 34.99993,0 0,-15.24964 -24.49994,0 0,-25.0002 54.49986,0 0,65.25004 -19.99995,0 0,-10.00027 c 0,0 0,10.00027 -9.99997,10.00027 -9.99998,0 -45.32658,0 -49.99988,0 -14.99997,0 -19.99994,-5.0001 -19.99994,-20.00007 0,-14.99993 0,-49.99993 0,-64.99986 z m 0,0"
       id="path19"
       inkscape:connector-curvature="0"
       style="fill:#4a4a4a" />
    <path
       d="m 100,871.05921 30,80 20.5,2e-4 -0.5,24.9998 -67.773835,0 0,-25 17.773835,0 -3,-10 -34,0 -3,10 18.032707,0 0,25 -68.032707,0 0.50001,-24.9998 24.49999,2e-4 20,-55.0004 -20,0 0,-24.9998 z m -27,45 14,0 -7,-20 z"
       id="Path 14-0"
       inkscape:connector-curvature="0"
       style="fill:#4a4a4a;fill-rule:evenodd"
       sodipodi:nodetypes="ccccccccccccccccccccccc" />
    <path
       style="fill:#4d4d4d;fill-opacity:1;fill-rule:evenodd;stroke:none"
       d="m 635,721 c 0,0 70,0 80,0 10,0 10,10 10,10 l 0.44282,-10 19.55718,0 0,35 -30,0 0,-10 -30,0 0,15 20,0 0,25 -20,0 0,15 30,0 0,-10 30,0 0,35 -110,0 0,-25 20,0 0,-55 -20,0 z"
       id="path3070-7-2-5"
       inkscape:connector-curvature="0"
       sodipodi:nodetypes="czcccccccccccccccccccccc" />
    <path
       style="fill:#4d4d4d;fill-opacity:1;fill-rule:evenodd;stroke:none"
       d="m 514.99998,721 c 0,0 70,0 80,0 10,0 10,10 10,10 l 0.0624,-10 19.93762,0 0,35 -30,0 0,-10 -30,0 0,15 15,0 0,25 -15,0 0,15 20,0 0,25 -70,0 0,-25 20,0 0,-55 -20,0 z"
       id="path3070-1-0"
       inkscape:connector-curvature="0"
       sodipodi:nodetypes="czcccccccccccccccccccc" />
    <path
       style="fill:#4d4d4d;fill-opacity:1;stroke:none"
       d="m 890,721 -65,0 0,25 15,0 0,15 -35,0 0,-15 15,0 0,-25 -65,0 0,25 20,0 0,55 -20,0 0,25 65,0 0,-25 -15,0 0,-15 35,0 0,15 -15,0 0,25 65,0 0,-25 -20,0 0,-55 20,0 z"
       id="path3933"
       inkscape:connector-curvature="0"
       sodipodi:nodetypes="ccccccccccccccccccccccccccccc" />
    <path
       style="fill:#4d4d4d;fill-opacity:1;fill-rule:evenodd;stroke:none"
       d="m 570,871.05921 -70,0 0,25 20,0 0,55 -20,0 0,25 70,0 0,-25 -20,0 0,-55 20,0 z"
       id="path3933-6"
       inkscape:connector-curvature="0"
       sodipodi:nodetypes="ccccccccccccc" />
    <path
       d="m 654.99995,871.08876 0,24.97045 -19.60757,-0.0295 c -0.0589,18.34755 0.30389,36.6937 -0.39238,55.0295 l 29.98206,-0.0953 0,-14.98209 29.96424,0 0.0537,40.07739 -19.97615,0 -0.0537,-10.11325 c 0,0 0.0179,10.11325 -9.9702,10.11325 l -79.99995,0 0,-25 20,0 -5e-5,-54.42906 -20,-0.57094 0,-24.96999 70,1e-5 z"
       id="Path 5-2"
       inkscape:connector-curvature="0"
       style="fill:#4a4a4a;fill-rule:evenodd"
       sodipodi:nodetypes="ccccccccccscccccccc" />
    <path
       style="fill:#4d4d4d;fill-opacity:1;fill-rule:evenodd;stroke:none"
       d="m 700,871.05921 0,25 20,0 0,55 -20,0 0,25 65,0 0,-25 -20,0 0,-55 0.71875,0 34.28125,80 35,-81.65625 0,56.65625 -20,0 0,25 70,0 0,-25 -20,0 0,-55 20,0 0,-25 -40,0 -25,0 -17,41 -18,-41 -30,0 -35,0 z"
       id="path3933-6-4-0"
       inkscape:connector-curvature="0" />
    <path
       style="fill:#4d4d4d;fill-opacity:1;stroke:none"
       d="m 10,1011.0592 0,25 20,0 0,55 -20,0 0,25 65,0 0,-25 -20,0 0,-45 50,70 30,0 0,-80 19.99997,0 0,-25 -69.99997,0 0,25 20,0 0,30 -40,-55 z"
       id="path4130"
       inkscape:connector-curvature="0"
       sodipodi:nodetypes="ccccccccccccccccccccc" />
    <path
       d="m 185,1011.0592 c 0,0 44.5879,2e-4 59.55053,2e-4 14.96263,0 20.44947,5.0352 20.44947,19.9998 l 0,65 c 0,15 -5.24995,20.0003 -20.44947,20.0002 L 185,1116.0592 c -15,0 -20,-5 -20,-20 l 0,-65 c 0,-15 5,-20 20,-20 z m 15,25 c -5,0 -5,0 -5,5 l 0,45 c 0,5 0,5 5,5 0,0 24.99998,4e-4 30,4e-4 4.75001,0 4.75001,0 4.75001,-5.0002 l 0,-45 c 0,-5.0002 0,-5.0002 -4.75001,-5.0002 -4.75001,0 -30,0 -30,0 z"
       id="path15-5"
       inkscape:connector-curvature="0"
       style="fill:#4a4a4a;fill-rule:evenodd"
       sodipodi:nodetypes="cssssccccccccssssc" />
    <path
       d="m 275.04983,1011 c 0,0 74.58805,0 89.55068,0 14.96263,0 20.10094,4.7387 20.19954,19.703 l 0.20001,30.356 c 0.0988,14.9997 -5.00006,20.0002 -20.19954,20.0002 l -39.80052,0 0,10 20,0 0,25 -69.95017,-0.059 0,-24.9408 19.95017,0 0,-55.1189 -19.95017,0 z m 49.75009,24.9998 0.20001,20.0596 c 0,0 20.25004,0 25.25006,0 4.75001,0 4.84941,0 4.75001,-5.0002 L 354.79999,1041 c -0.0994,-4.9992 0,-5.0002 -4.75001,-5.0002 -4.75001,0 -25.25006,0 -25.25006,0 z"
       id="path15-9"
       inkscape:connector-curvature="0"
       style="fill:#4a4a4a;fill-rule:evenodd"
       sodipodi:nodetypes="cssssccccccccccccssssc" />
    <path
       d="m 420,1011 c 0,0 44.5879,2e-4 59.55053,2e-4 14.96263,0 20.44947,5.0352 20.44947,19.9998 0,0 0,50 0,65 0,15 -5,20 -20,20 l -15,0 0,5 25,0 0,25 c 0,0 -15,0 -30,0 -15,0 -20,-5 -20,-20 0,-5 0,-10 0,-10 l -20,0 c -15,0 -20,-5 -20,-20 l 0,-65 c 0,-15 5,-20 20,-20 z m 15,25 c -5,0 -5,0 -5,5 l 0,45 c 0,5 0,5 5,5 l 5,0 0,-10 25,0 0,10 c 4.75001,0 4.75001,4e-4 4.75001,-4.9998 l 0,-45 c 0,-5.0002 0,-5.0002 -4.75001,-5.0002 -4.75001,0 -30,0 -30,0 z"
       id="path15-5-5-2-9"
       inkscape:connector-curvature="0"
       style="fill:#4a4a4a;fill-rule:evenodd"
       sodipodi:nodetypes="csszccccczccccccccccccccsssc" />
    <path
       style="fill:#4d4d4d;stroke:none"
       d="m 520,1011 0,25 20,0 0,55 -20,0 0,25 70,0 0,-25 -20,0 0,-15 25,0 c 5,0 5,0 5,5 l 0,15 c 0,15 5,20 20,20 l 20,0 0,-25 -5,0 c -5,0 -5,0 -5,-5 l 0,-7 c 0,-10 -5,-15 -15,-15 10,0 15,-5 15,-15 l 0,-18 c 0,-15 -5,-20 -20,-20 z m 50,25 25,0 c 5,0 5,0 5,5 l 0,5 c 0,5 0,5 -5,5 l -25,0 z"
       id="path4275"
       inkscape:connector-curvature="0"
       sodipodi:nodetypes="ccccccccccccccccccccccccccccccc" />
    <path
       style="fill:#4d4d4d;fill-opacity:1;fill-rule:evenodd;stroke:none"
       d="m 140,1171 -20.41261,0 0.41261,10 c 0,0 0,-10 -10,-10 -10,0 -60,0 -70,0 -10,0 -10,10 -10,10 l 0,-10 -20,0 0,35 30,0 0,-10 20,0 0,55 -20,0 0,25 70,0 0,-25 -20,0 0,-55 20,0 0,10 30,0 z"
       id="path3933-6-2"
       inkscape:connector-curvature="0"
       sodipodi:nodetypes="ccczzcccccccccccccccccc" />
    <path
       style="fill:#4d4d4d;stroke:none"
       d="m 155,1171 65,0 0,25 -15,0 0,50 c 0,5 0,5 5,5 l 25,0 c 5,0 5,0 5,-5 l 0,-50 -15,0 0,-25 65,0 0,25 -20,0 0,60 c 0,15 -5,20 -20,20 l -55,0 c -15,0 -20,-5 -20,-20 l 0,-60 -20,0 z"
       id="path4336"
       inkscape:connector-curvature="0"
       sodipodi:nodetypes="ccccccccccccccccccccc" />
    <path
       style="fill:#4d4d4d;fill-rule:evenodd;stroke:none"
       d="m 440,1171 -60,0 0,25 15,0 -20,40 -20,-40 15,0 0,-25 -70,0 0,25 20,0 40,80 20,0 40,-80 20,0 z"
       id="path4336-3"
       inkscape:connector-curvature="0"
       sodipodi:nodetypes="cccccccccccccccc" />
    <path
       style="fill:#4d4d4d;stroke:none"
       d="m 455,1171 70,0 0,25 -15,0 10,30 20,-55 20,0 20,55 10,-30 -15,0 0,-25 60,0 0,25 -20,0 -25,80 -25,0 -20,-50 -20,50 -25,0 -25,-80 -20,0 z"
       id="path4487"
       inkscape:connector-curvature="0"
       sodipodi:nodetypes="cccccccccccccccccccccc" />
    <path
       style="fill:#4d4d4d;stroke:none"
       d="m 655,1171 0,25 19.0625,0 23.28125,30.5938 L 676.4375,1251 655,1251 l 0,25 50,0 0,-25 -3.5625,0 7.6875,-8.9687 6.8125,8.9687 -5.9375,0 0,25 25,0 35,0 0,-25 -19.0625,0 -23.28125,-30.5937 L 748.5625,1196 770,1196 l 0,-25 -50,0 0,25 3.5625,0 -7.6875,8.9688 -6.8125,-8.9688 5.9375,0 0,-25 -25,0 -35,0 z"
       id="rect4538"
       inkscape:connector-curvature="0" />
    <path
       inkscape:connector-curvature="0"
       style="fill:#4d4d4d;fill-rule:evenodd;stroke:none"
       d="m 780,1171 0,25 19.0625,0 25.9375,35 0,20 -20,0 0,25 70,0 0,-25 -25,0 0,-20 23.5625,-35 21.4375,0 0,-25 -50,0 0,25 5,0 -10,15 -10,-15 10,0 0,-25 -25,0 z"
       id="rect4538-7"
       sodipodi:nodetypes="ccccccccccccccccccccccc" />
    <path
       style="fill:#4d4d4d;stroke:none"
       d="m 660,1011 14.93886,0 0.0611,10 c 0,0 0,-10 10,-10 10,0 70.00004,0 70.00004,0 l 0,25 -60,55 34.99996,0 0,-10 25.00004,0 0,10 0,25 -14.748,0 -0.252,-10 c 0,0 4e-5,10 -10,10 -10.00004,0 -70.00004,0 -70.00004,0 l 4e-5,-25 60,-55 -35.00004,0 0,10 -25,0 z"
       id="path4697"
       inkscape:connector-curvature="0"
       sodipodi:nodetypes="ccczcccccccccczccccccc" />
  </g>
</svg>
