<?xml version="1.0" encoding="UTF-8" standalone="no"?>
<svg
   xmlns:dc="http://purl.org/dc/elements/1.1/"
   xmlns:cc="http://creativecommons.org/ns#"
   xmlns:rdf="http://www.w3.org/1999/02/22-rdf-syntax-ns#"
   xmlns:svg="http://www.w3.org/2000/svg"
   xmlns="http://www.w3.org/2000/svg"
   xmlns:sodipodi="http://sodipodi.sourceforge.net/DTD/sodipodi-0.dtd"
   xmlns:inkscape="http://www.inkscape.org/namespaces/inkscape"
   width="990"
   height="765"
   viewBox="0 0 990 765"
   version="1.1"
   id="svg2"
   inkscape:version="0.48.2 r9819"
   sodipodi:docname="Patent Cure Quadrille.svg">
  <metadata
     id="metadata27">
    <rdf:RDF>
      <cc:Work
         rdf:about="">
        <dc:format>image/svg+xml</dc:format>
        <dc:type
           rdf:resource="http://purl.org/dc/dcmitype/StillImage" />
        <dc:title>Slice 1</dc:title>
      </cc:Work>
    </rdf:RDF>
  </metadata>
  <sodipodi:namedview
     pagecolor="#ffffff"
     bordercolor="#666666"
     borderopacity="1"
     objecttolerance="10"
     gridtolerance="10"
     guidetolerance="10"
     inkscape:pageopacity="0"
     inkscape:pageshadow="2"
     inkscape:window-width="1440"
     inkscape:window-height="852"
     id="namedview25"
     showgrid="true"
     inkscape:zoom="1"
     inkscape:cx="532.02839"
     inkscape:cy="208.51909"
     inkscape:window-x="0"
     inkscape:window-y="0"
     inkscape:window-maximized="1"
     inkscape:current-layer="Page 1"
     showguides="true"
     inkscape:guide-bbox="true">
    <inkscape:grid
       type="xygrid"
       id="grid3004"
       empspacing="4"
       visible="true"
       enabled="true"
       snapvisiblegridlinesonly="true"
       dotted="false"
       spacingx="5px"
       spacingy="5px" />
    <sodipodi:guide
       orientation="0,1"
       position="0,740"
       id="guide7224" />
    <sodipodi:guide
       orientation="0,1"
       position="0,640"
       id="guide7226" />
    <sodipodi:guide
       orientation="0,1"
       position="0,600"
       id="guide7228" />
    <sodipodi:guide
       orientation="0,1"
       position="0,500"
       id="guide7230" />
    <sodipodi:guide
       orientation="0,1"
       position="0,460"
       id="guide7232" />
    <sodipodi:guide
       orientation="0,1"
       position="0,360"
       id="guide7234" />
    <sodipodi:guide
       orientation="0,1"
       position="0,320"
       id="guide7236" />
    <sodipodi:guide
       orientation="0,1"
       position="0,220"
       id="guide7238" />
    <sodipodi:guide
       orientation="0,1"
       position="130,180"
       id="guide7240" />
    <sodipodi:guide
       orientation="0,1"
       position="0,80"
       id="guide7242" />
  </sodipodi:namedview>
  <title
     id="title4">Slice 1</title>
  <description
     id="description6">Created with Sketch (http://www.bohemiancoding.com/sketch)</description>
  <defs
     id="defs8" />
  <g
     id="Page 1"
     style="fill:#e0e0e0;fill-rule:evenodd"
     transform="translate(0,-696)">
    <path
       d="m 60,721 0,20 20,0 -0.392432,49.63734 c -0.08094,10.23745 0,10.23777 -10.112933,10.23777 l -19.476749,0 0,-14.98209 -29.964232,0 L 20.000004,821 39.976159,821 40,806 c 0,0 0,15 15,15 9.988075,0 20.017891,0 35,0 14.98212,0 20,-4.76806 20,-20 l 0,-60 20,0 0,-19.99954 -70.000004,10e-6 z"
       id="Path 5"
       inkscape:connector-curvature="0"
       style="fill:#4a4a4a"
       sodipodi:nodetypes="cccssccccccsssccccc" />
    <path
       d="m 305,720.97045 40,0.0295 c 10,5e-5 15,5e-5 15,15 l 1.1e-4,-15.02955 20.25003,0 L 380,751 350,751 350.25005,741 325,741 c -10,0 -10,0 -10,10 0,10 0.24998,10 10,10 l 35.00011,-0.0297 c 15.00003,0 20.25003,4.74999 20.25003,19.74999 L 380,801.00001 c 0,15 -4.99997,20 -20,20 L 320,821 c -10,0 -15,0 -15,-15 l -1.1e-4,15.00001 -19.75005,0 1.1e-4,-30.27941 30.00007,0 0,10.25002 24.74998,0.0294 c 10.25002,0 10,-4e-5 10,-10.00002 0,-10.00002 0.25002,-9.99999 -10,-9.99998 l -35.00007,2e-5 C 290,781.00005 285,776 285,761 l 0,-20 c 0,-14.75029 4.99997,-20.02955 20,-20.02955 z"
       id="Path 9"
       inkscape:connector-curvature="0"
       style="fill:#4a4a4a"
       sodipodi:nodetypes="cccccccccscccccccccccccsccccc" />
    <path
       d="m 140,721 0,20 20,0 -0.24996,59.97061 -19.75004,0 0,20.02939 70,0 0,-20.02939 -20,0.0294 0,-10 20,-15 c 0,0 14.50016,45.00001 49.25023,45.00001 L 275,821 l 0,-20 -11.24976,0 C 244.2502,801 230,761 230,761 l 25,-20 20,0 0,-20.02939 -60,0 0,20.02971 10,0 L 190,766 l 0,-25 20,3.2e-4 0,-20.02971 z"
       id="Path 10"
       inkscape:connector-curvature="0"
       style="fill:#4a4a4a"
       sodipodi:nodetypes="ccccccccccccccccccccccccccc" />
    <path
       d="m 390,721 c 0,0 75.07313,0 90,0 14.92687,0 20,5.07157 20,20 l 0,10 c 0,15 -5,20 -15,20 10,0 15,5 15,20 l 0,10 c 0,14.96461 -4.83681,20 -20,20 -15.1632,0 -90,0 -90,0 l 0,-20 20,0 0,-60 -20,0 z m 50,20 0,20 20,0 c 10,0 10,0 10,-10 0,-10 0,-10 -10,-10 z m 0,40 0,20 20,0 c 10,0 10,0 10,-10 0,-10 0,-10 -10,-10 z"
       id="Path 4"
       inkscape:connector-curvature="0"
       style="fill:#4a4a4a"
       sodipodi:nodetypes="cscccccscccccccccsscccczsc" />
    <path
       d="m 380.04983,860.94059 c 0,0 74.58805,0 89.55068,0 14.96263,0 20.34972,5.09483 20.39949,20.05941 l 0.19954,59.99984 C 490.24942,955.99976 485.19952,961 470,961 l -89.55068,0 -0.44947,-19.94095 19.95017,0 L 399.95017,881 380,881 z M 429.75007,881.05952 429.74992,941 c 0,0 15.25006,0 20.25008,0 10,0 10.23072,-4.99994 10.19946,-10 l -0.24931,-39.88091 c -0.0625,-9.99997 0,-10 -10,-10 -4.75001,0 -20.2001,-0.0596 -20.2001,-0.0596 z"
       id="path15"
       inkscape:connector-curvature="0"
       style="fill:#4a4a4a"
       sodipodi:nodetypes="cssssccccccccsssscc" />
    <path
       d="m 270,880.99965 c 0,-15 5.00001,-19.99969 20.00005,-19.99969 5.37073,0 34.99994,4e-5 44.99995,4e-5 15,0 15,15 15,15 l 1.6e-4,-15.00004 20.00004,0 L 370,891 340,891.00032 340,881 c 0,0 -25.00012,2e-4 -30.00013,2e-4 -10,0 -10,0 -10,10 0,5.00016 0,34.98605 0,39.99948 0,10 0,9.99989 10,10 L 340,941 l 0,-10 30.00007,0 c 0,0 1.3e-4,-5 1.3e-4,10 0,15 -5.00001,20.00016 -20.00004,20.00016 -15.00002,0 -55.32679,0 -60.00011,0 C 275.00001,961.00016 270,956 270,941 c 0,-15 0,-44.99988 0,-60.00035 z"
       id="path17"
       inkscape:connector-curvature="0"
       style="fill:#4a4a4a"
       sodipodi:nodetypes="sssccccccsssscccsssss" />
    <path
       d="m 160.00011,880.99987 c 0,-14.99994 4.99997,-20.00007 19.99994,-20.00007 5.37071,0 34.99997,2e-4 44.99995,2e-4 15,0 15,15 15,15 l -1e-4,-15.0002 19.99995,0 7e-5,30 -29.99992,0 0,-9.9998 c 0,0 -25.00001,0 -30,0 -10,0 -10,0 -10,10 0,5.00013 0,34.98659 0,40 0,10 0,10.00013 10,10 l 29.99993,-4e-4 L 230,921 l -25,0 -7e-5,-20.25024 54.99992,0 -1.1e-4,60.25031 -19.99995,0 L 240,946 c 0,0 0,15 -15,15 -9.99998,0 -40.32676,7e-5 -45.00006,7e-5 C 164.99997,961.00007 160,955.99997 160,941 c 0,-14.99993 1.1e-4,-45.0002 1.1e-4,-60.00013 z"
       id="path19"
       inkscape:connector-curvature="0"
       style="fill:#4a4a4a"
       sodipodi:nodetypes="sssccccccssssccccccccssss" />
    <path
       style="fill:#4d4d4d;fill-opacity:1;fill-rule:evenodd;stroke:none"
       d="m 635,721 c 0,0 60,0 75,0 15,0 15,15 15,15 l 0.44282,-15 19.55718,0 0,30 -30,0 0,-10 -30,0 0,20 20,0 0,20 -20,0 0,20 30,0 0,-10 30,0 0,30 -110,0 0,-20 20,0 0,-60 -20,0 z"
       id="path3070-7-2-5"
       inkscape:connector-curvature="0"
       sodipodi:nodetypes="czcccccccccccccccccccccc" />
    <path
       style="fill:#4d4d4d;fill-opacity:1;fill-rule:evenodd;stroke:none"
       d="m 514.99998,721 c 0,0 60.00002,0 75.00002,0 15,0 15,15 15,15 l 0.0624,-15 19.93762,0 0,30 -30,0 0,-10 -30,0 0,20 20,0 0,20 -20,0 0,20 20,0 0,20 -70,0 0,-20 20,0 0,-60 -20,0 z"
       id="path3070-1-0"
       inkscape:connector-curvature="0"
       sodipodi:nodetypes="czcccccccccccccccccccc" />
    <path
       style="fill:#4d4d4d;fill-opacity:1;stroke:none"
       d="m 890,721 -65,0 0,20 15,0 0,20 -35,0 0,-20 15,0 0,-20 -65,0 0,20 20,0 0,60 -20,0 0,20 65,0 0,-20 -15,0 0,-20 35,0 0,20 -15,0 0,20 65,0 0,-20 -20,0 0,-60 20,0 z"
       id="path3933"
       inkscape:connector-curvature="0"
       sodipodi:nodetypes="ccccccccccccccccccccccccccccc" />
    <path
       style="fill:#4d4d4d;fill-opacity:1;fill-rule:evenodd;stroke:none"
       d="m 570,860.9998 -70,0 0,20.0002 20,0 0,60 -20,0 0,20 70,0 0,-20 -20,0 0,-60 20,0 z"
       id="path3933-6"
       inkscape:connector-curvature="0"
       sodipodi:nodetypes="ccccccccccccc" />
    <path
       d="M 654.99995,861.02935 655,881 l -20,0 c -0.0589,18.34755 0.71421,41.7595 0.0179,60.0953 L 665,941 l 0.0358,-10 29.96424,0 0,30 -20.36853,0.0295 L 675,946 c 0,0 0,15 -15,15 l -75,0 0.018,-19.9047 20,0 -0.41037,-59.49486 L 585,881 l 0,-20 69.99995,0.0298 z"
       id="Path 5-2"
       inkscape:connector-curvature="0"
       style="fill:#4a4a4a;fill-rule:evenodd"
       sodipodi:nodetypes="ccccccccccscccccccc" />
    <path
       style="fill:#4d4d4d;fill-opacity:1;fill-rule:evenodd;stroke:none"
       d="m 700,860.9998 0,20.0002 20,0 0,60 -20,0 0,20 60,0 0,-20 -20,0 0,-60 40,80 35,-80 0,60 -20,0 0,20 70,0 0,-20 -20,0 0,-60 20,0 0,-20.0002 -40,0 -20,2e-4 -20,45 -20,-45.0002 -30,0 z"
       id="path3933-6-4-0"
       inkscape:connector-curvature="0"
       sodipodi:nodetypes="ccccccccccccccccccccccccccc" />
    <path
       style="fill:#4d4d4d;fill-opacity:1;stroke:none"
       d="m 20,1001 0,20 20,0 0,60 -20,0 0,20 65,0 0,-20 -25,0 0,-55 55,75 25,0 0,-80 19.99997,0 0,-20 -59.99997,0 0,20 20,0 0,40 -45,-60 z"
       id="path4130"
       inkscape:connector-curvature="0"
       sodipodi:nodetypes="ccccccccccccccccccccc" />
    <path
       d="m 195,1001 60,0 c 14.96263,0 19.88763,5 20,20 l 0,60 c -0.44947,15.0002 -4.80048,20.0001 -20,20 l -59.55053,-2e-4 C 180,1101 175,1096 175,1081 l 0,-60 c 0,-15 5,-20 20,-20 z m 20,20 c -10,0 -10,0 -10,10 l 0,40 c 0,10 0,10 10,10 l 20,0 c 10,0 10,0 10,-10 l -0.24999,-39.9998 C 244.68751,1020.9996 245,1021 235,1021 z"
       id="path15-5"
       inkscape:connector-curvature="0"
       style="fill:#4a4a4a;fill-rule:evenodd"
       sodipodi:nodetypes="cccccccccccccccccc" />
    <path
       d="m 285.04983,1000.9408 c 0,0 74.58805,0 89.55068,0 14.96263,0 20.25019,5.0953 20.39949,20.0592 l 0.19954,19.9998 C 395.34919,1055.9991 390.19948,1061 375,1061 l -39.80052,0 -0.19948,20 20,0 -0.0498,20.059 L 285,1101 l 0.0498,-19.9998 19.95017,0 -0.05,-60.0595 -19.95017,0 z m 49.70011,20.0592 0.24999,20.0002 c 0,0 15.00005,-2e-4 20.00007,-2e-4 10,0 10,0 10,-10 0,-10 0,-10 -10,-10 -4.75001,0 -20.25006,0 -20.25006,0 z"
       id="path15-9"
       inkscape:connector-curvature="0"
       style="fill:#4a4a4a;fill-rule:evenodd"
       sodipodi:nodetypes="cssssccccccccccccsccc" />
    <path
       d="m 440,1001 59.55053,2e-4 C 514.51316,1001.0002 520,1006.0354 520,1021 l 0,60 c 0,15 -5,20 -20,20 l -20,0 0,5 30,0 0,20 -30,0 c -15,0 -20,-5 -20,-20 0,-5 0,-5 0,-5 l -20,0 c -15,0 -20,-5 -20,-20 l 0,-60 c 0,-15 5,-20 20,-20 z m 20,20 c -10,0 -10,0 -10,10 l 0,45 c 0,5 0,5 10,5 l 0,-10 20,0 0,10 c 10,0 10,0 9.75001,-4.9998 L 490,1031 c 0.0555,-10 0,-10 -10,-10 z"
       id="path15-5-5-2-9"
       inkscape:connector-curvature="0"
       style="fill:#4a4a4a;fill-rule:evenodd"
       sodipodi:nodetypes="ccccccccccccccccccccccccccc" />
    <path
       style="fill:#4d4d4d;stroke:none"
       d="m 540,1001 0,20 20,0 0,60 -20,0 0,20 70,0 0,-20 -20,0 0,-15 25,0 c 5,0 5,0 5,5 l 0,10 c 0,15 5,20 20,20 l 20,0 0,-20 -5,0 c -5,0 -5,0 -5,-5 l 0,-10 c 0,-10 -5,-15 -15,-15 10,0 15,-5 15,-15 l 0,-20 c 0,-15 -5,-15 -20,-15 z m 50,20 20,0 c 10,0 10,0 10,10 0,10 0,10 -10,10 l -20,0 z"
       id="path4275"
       inkscape:connector-curvature="0"
       sodipodi:nodetypes="cccccccccccccccccccccccccccccc" />
    <path
       style="fill:#4d4d4d;fill-opacity:1;fill-rule:evenodd;stroke:none"
       d="m 150,1141 -20,0 0,15 c 0,-10 -5,-15 -15,-15 l -60,0 c -10,0 -15,5 -15,15 l 0,-15 -20,0 0,30 30,0 0,-10 20,0 0,60 -20,0 0,20 70,0 0,-20 -20,0 0,-60 20,0 0,10 30,0 z"
       id="path3933-6-2"
       inkscape:connector-curvature="0"
       sodipodi:nodetypes="ccccccccccccccccccccccc" />
    <path
       style="fill:#4d4d4d;stroke:none"
       d="m 165,1141 65,0 0,20 -15,0 0,50 c 0,10 0,10 10,10 l 15,0 c 10,0 10,0 10,-10 l 0,-50 -15,0 0,-20 65,0 0,20 -20,0 0,60 c 0,15 -5,20 -20,20 l -55,0 c -15,0 -20,-5 -20,-20 l 0,-60 -20,0 z"
       id="path4336"
       inkscape:connector-curvature="0"
       sodipodi:nodetypes="ccccccccccccccccccccc" />
    <path
       style="fill:#4d4d4d;fill-rule:evenodd;stroke:none"
       d="m 450,1141 -60,0 0,20 15,0 -20,45 -20,-45 15,0 0,-20 -70,0 0,20 20,0 40,80 20,0 40,-80 20,0 z"
       id="path4336-3"
       inkscape:connector-curvature="0"
       sodipodi:nodetypes="cccccccccccccccc" />
    <path
       style="fill:#4d4d4d;stroke:none"
       d="m 465,1141 70,0 0,20 -15,0 10,35 20,-55 20,0 20,55 10,-35 -15,0 0,-20 60,0 0,20 -20,0 -25,80 -25,0 -20,-50 -20,50 -25,0 -25,-80 -20,0 z"
       id="path4487"
       inkscape:connector-curvature="0"
       sodipodi:nodetypes="cccccccccccccccccccccc" />
    <path
       style="fill:#4d4d4d;stroke:none"
       d="m 680.00004,1001 14.93886,0 0.0611,15 c 0,0 0,-15 15,-15 l 65.00004,0 0,20 -60,60 34.99996,0 0,-10 25.00004,0 0,10 0,20 -14.748,0 L 760,1086 c 0,0 0,15 -15,15 l -65,0 4e-5,-20 60,-60 -35.00004,0 0,10 -25,0 z"
       id="path4697"
       inkscape:connector-curvature="0"
       sodipodi:nodetypes="cccccccccccccccccccccc" />
    <path
       style="fill:#4d4d4d;fill-opacity:1;fill-rule:evenodd;stroke:none"
       d="m 805,1141 0,20 10,0 35,38.4688 0,21.5312 -20,0 0,20 75,0 0,-20 -20,0 0,-26.1562 30,-33.8438 10,0 0,-20 -55,0 0,20 15,0 -15,20 -15,-20 10,0 0,-20 z"
       id="rect4758-3"
       inkscape:connector-curvature="0"
       sodipodi:nodetypes="cccccccccccccccccccccc" />
    <path
       style="fill:#4d4d4d;fill-opacity:1;fill-rule:evenodd;stroke:none"
       d="m 660,1141 0,20 10,0 35,32.3125 -30,27.6875 -15,0 0,20 60,0 0,-20 -15,0 15,-13.8438 15,13.8438 -10,0 0,20 60,0 0,-20 -10,0 -35,-32.3125 30,-27.6875 15,0 0,-20 -60,0 0,20 15,0 -15,13.8437 -15,-13.8437 10,0 0,-20 z"
       id="rect4758-4"
       inkscape:connector-curvature="0"
       sodipodi:nodetypes="ccccccccccccccccccccccccccccc" />
    <path
       style="fill:#4d4d4d;stroke:none;stroke-width:1px;stroke-linecap:butt;stroke-linejoin:miter;stroke-opacity:1"
       d="M 35 165 L 35 185 L 55.78125 185 C 45.410914 207.59368 30 241.67015 30 245 L 15 245 L 15 265 L 75 265 L 75 245 L 55 245 L 60.625 230 L 93.4375 230 L 100 245 L 80 245 L 80 265 L 150 265 L 150 245 L 135 245 L 100 165 L 85 165 L 65 165 L 35 165 z M 75.78125 189.625 L 84.6875 210 L 68.125 210 L 75.78125 189.625 z "
       transform="translate(0,696)"
       id="path4846" />
    <path
       style="fill:#4d4d4d;stroke:none"
       d="m 20,1281 0,30 30,0 0,-10 20,0 0,80 30,0 0,-100 -45,0 c -10,0 -15,5 -15,15 l 0,-15 z"
       id="path7244"
       inkscape:connector-curvature="0"
       sodipodi:nodetypes="cccccccccccc" />
    <path
       style="fill:#4d4d4d;stroke:none"
       d="m 110,1311 0,-10 c 0,-15 5,-20 20,-20 l 60,0 c 13.66667,0.3333 20.33333,7 20,20 l 0,20 c 0.0317,12.7271 -6.03697,19.9348 -20,20 l -50,0 0,20 40,0 0,-10 30,0 0,30 -20,0 0,-15 c 0,10 -5,15 -15,15 l -65,0 0,-40 c -0.0149,-11.121 4.10228,-19.4874 20,-20 l 50,0 0,-20 -40,0 0,10 z"
       id="path7246"
       inkscape:connector-curvature="0"
       sodipodi:nodetypes="cccccccccccccccccccccccc" />
    <path
       style="fill:#4d4d4d;stroke:none"
       d="m 220,615 0,-10 c 0.26096,-11.85224 5.75949,-19.46454 20,-20 l 60,0 c 13.61558,0.41264 19.71271,7.59189 20,20 l 0,20 c -1.30667,4.85333 -3.42124,9.10074 -10,10 5.66667,0.66667 9,4 10,10 l 0,20 c 0.42098,15.24645 -7.79456,20.03816 -20,20 l -60,0 c -13.66667,0.33333 -20.33333,-6.33333 -20,-20 l 0,-10 30,0 0,10 40,0 0,-20 -30,0 0,-20 30,0 0,-20 -40,0 0,10 z"
       id="path7248"
       inkscape:connector-curvature="0"
       transform="translate(0,696)"
       sodipodi:nodetypes="cccccccccccccccccccccccc" />
    <path
       style="fill:#4d4d4d;stroke:none;stroke-width:1px;stroke-linecap:butt;stroke-linejoin:miter;stroke-opacity:1"
       d="m 360,585 -30,60 0,20 70,0 0,20 30,0 0,-20 20,0 0,-20 -20,0 0,-60 z m 20,20 20,0 0,40 -40,0 z"
       id="path7250"
       inkscape:connector-curvature="0"
       sodipodi:nodetypes="ccccccccccccccccc"
       transform="translate(0,696)" />
    <path
       style="fill:#4d4d4d;stroke:none"
       d="m 460,585 60,0 c 14.7567,-0.0905 15.28428,7.24299 15,15 l 0.5,-15 19.5,0 0,30 -30,0 0,-10 -35,0 0,20 45,0 c 13.36502,0.28729 20.6297,6.38442 20,20 l 0,20 c -0.66667,13.66667 -7.33333,20.33333 -20,20 l -40,0 c -9.43963,2.10341 -15.53498,-1.14403 -15,-15 l 0,15 -20,0 0,-30 30,0 0,10 40,0 0,-20 -70,0 z"
       id="path7255"
       inkscape:connector-curvature="0"
       transform="translate(0,696)"
       sodipodi:nodetypes="ccccccccccccccccccccccccc" />
    <path
       style="fill:#4d4d4d;stroke:none"
       d="m 590,585 c -13.61558,-0.6297 -19.71271,6.63498 -20,20 l 0,60 c 0.28729,13.68398 6.38442,20.97714 20,20 l 60,0 c 13.04605,0.0317 20.28225,-6.03697 20,-20 l 0,-20 c 0.42098,-14.87342 -7.79456,-19.74665 -20,-20 l -50,0 0,-20 40,0 0,10 30,0 0,-10 c -0.26349,-11.39945 -4.48691,-19.872 -20,-20 z m 20,60 c 177679280,0 10,0 25,0 10,0 10,0 10,10 0,10 0,10 -10,10 l -25,0 c -10,0 -10,0 -10,-10 0,-10 0,-10 10,-10 z"
       transform="translate(0,696)"
       id="path7257"
       inkscape:connector-curvature="0"
       sodipodi:nodetypes="ccccccccccccccccccccccc" />
    <path
       style="fill:#4d4d4d;stroke:none"
       d="m 680,615 0,-30 20,0 0,15 c 0,-10 5,-15 15,-15 l 55,0 c 13.33333,0.66667 20,7.33333 20,20 l 0,20 c -0.41264,14.31048 -7.59189,20.35065 -20,20 l -20,0 0,40 -30,0 0,-40 c 0.28729,-12.72708 6.38442,-19.93481 20,-20 l 20,0 0,-20 -50,0 0,10 z"
       id="path7262"
       inkscape:connector-curvature="0"
       transform="translate(0,696)"
       sodipodi:nodetypes="ccccccccccccccccccc" />
    <path
       style="fill:#4d4d4d;stroke:none"
       d="m 820,585 c -15,0 -20,5 -20,20 l 0,20 c 0,5 5,10 10,10 -5,0 -10,5 -10,10 l 0,20 c 0,15 5,20 20,20 l 60,0 c 13.33333,0.66667 20,-6 20,-20 l 0,-20 c 0,-5 -5,-10 -10,-10 5,0 10,-5 10,-10 l 0,-20 c 0,-15 -5,-20 -20,-20 z m 20,20 20,0 c 10,0 10,0 10,10 0,10 0,10 -10,10 l -20,0 c -10,0 -10,0 -10,-10 0,-10 0,-10 10,-10 z m 0,40 20,0 c 10,0 10,0 10,10 0,10 0,10 -10,10 l -20,0 c -10,0 -10,0 -10,-10 0,-10 0,-10 10,-10 z"
       transform="translate(0,696)"
       id="path7264"
       inkscape:connector-curvature="0"
       sodipodi:nodetypes="ccccccccccccccccccccccccccccc" />
  </g>
</svg>
