<?xml version="1.0" encoding="UTF-8" standalone="no"?>
<svg
   xmlns:dc="http://purl.org/dc/elements/1.1/"
   xmlns:cc="http://creativecommons.org/ns#"
   xmlns:rdf="http://www.w3.org/1999/02/22-rdf-syntax-ns#"
   xmlns:svg="http://www.w3.org/2000/svg"
   xmlns="http://www.w3.org/2000/svg"
   xmlns:sodipodi="http://sodipodi.sourceforge.net/DTD/sodipodi-0.dtd"
   xmlns:inkscape="http://www.inkscape.org/namespaces/inkscape"
   width="1980"
   height="1530"
   viewBox="0 0 1980 1530"
   version="1.1"
   id="svg2"
   inkscape:version="0.48.2 r9819"
   sodipodi:docname="Patent Cure Quadrille v2.svg">
  <metadata
     id="metadata27">
    <rdf:RDF>
      <cc:Work
         rdf:about="">
        <dc:format>image/svg+xml</dc:format>
        <dc:type
           rdf:resource="http://purl.org/dc/dcmitype/StillImage" />
        <dc:title>Slice 1</dc:title>
      </cc:Work>
    </rdf:RDF>
  </metadata>
  <sodipodi:namedview
     pagecolor="#ffffff"
     bordercolor="#666666"
     borderopacity="1"
     objecttolerance="10"
     gridtolerance="10"
     guidetolerance="10"
     inkscape:pageopacity="0"
     inkscape:pageshadow="2"
     inkscape:window-width="1440"
     inkscape:window-height="852"
     id="namedview25"
     showgrid="true"
     inkscape:zoom="1"
     inkscape:cx="886.13986"
     inkscape:cy="478.88375"
     inkscape:window-x="0"
     inkscape:window-y="0"
     inkscape:window-maximized="1"
     inkscape:current-layer="Page 1"
     showguides="true"
     inkscape:guide-bbox="true"
     units="in">
    <inkscape:grid
       type="xygrid"
       id="grid3004"
       empspacing="4"
       visible="true"
       enabled="true"
       snapvisiblegridlinesonly="true"
       dotted="false"
       spacingx="5px"
       spacingy="5px" />
    <sodipodi:guide
       orientation="0,1"
       position="0,780"
       id="guide7224" />
    <sodipodi:guide
       orientation="0,1"
       position="0,640"
       id="guide7228" />
    <sodipodi:guide
       orientation="0,1"
       position="0,540"
       id="guide7230" />
    <sodipodi:guide
       orientation="0,1"
       position="0,510"
       id="guide7232" />
    <sodipodi:guide
       orientation="0,1"
       position="0,400"
       id="guide7234" />
    <sodipodi:guide
       orientation="0,1"
       position="1750,300"
       id="guide7236" />
    <sodipodi:guide
       orientation="0,1"
       position="755,220"
       id="guide7238" />
    <sodipodi:guide
       orientation="0,1"
       position="-20,140"
       id="guide7240" />
    <sodipodi:guide
       orientation="0,1"
       position="0,40"
       id="guide3028" />
    <sodipodi:guide
       orientation="0,1"
       position="-20,680"
       id="guide3086" />
    <sodipodi:guide
       orientation="0,1"
       position="880,300"
       id="guide3473" />
    <sodipodi:guide
       orientation="0,1"
       position="0,330"
       id="guide3524" />
    <sodipodi:guide
       orientation="0,1"
       position="0,480"
       id="guide3841" />
    <sodipodi:guide
       orientation="0,1"
       position="635,365"
       id="guide3843" />
    <sodipodi:guide
       orientation="0,1"
       position="0,185"
       id="guide3845" />
  </sodipodi:namedview>
  <title
     id="title4">Slice 1</title>
  <description
     id="description6">Created with Sketch (http://www.bohemiancoding.com/sketch)</description>
  <defs
     id="defs8" />
  <g
     id="Page 1"
     style="fill:#e0e0e0;fill-rule:evenodd"
     transform="translate(0,69)">
    <path
       d="m 65.000002,681.02971 0,20 20,0 -0.392432,49.63734 C 84.526633,760.9045 85.112933,761.02971 75,761.02971 l -20,0 c -10,0 -10,0 -10,-10.69078 L 45,746.02971 20.05365,745.90482 20,781.02971 l 19.976159,0 0.02384,-15 c 0,10 5,15 15,15 l 30.392432,0.36266 C 100.37349,781.57113 115,776.26165 115,761.02971 l 0,-60 20,0 0,-20 -70.000002,4.7e-4 z"
       id="Path 5"
       inkscape:connector-curvature="0"
       style="fill:#4a4a4a"
       sodipodi:nodetypes="cccssccccccccssccccc" />
    <path
       d="m 305,681.00016 45,0.0295 c 10,0 15,5 15,15 l 0,-15 20.25014,-0.0296 -0.25014,35.0296 -25,0 0,-5 c 0,-10 0,-10 -10,-10 l -25,0 c -10,0 -10,0 -10,10 0,10 0.24998,10 10,10 l 40.00011,-0.0297 c 15.00003,0 20.25003,4.74999 20.25003,19.74999 L 385,761.02971 c 0,15 -4.99997,20 -20,20 l -45,0 c -10,0 -15,-5 -15,-15 l 0,15 -20,0 1.1e-4,-35.02939 24.99989,0.0294 0,5 c 0,10 0,10 10,10 l 25,10e-6 c 10.25002,0 10,-4e-5 10,-10.00002 0,-10.00002 0.25002,-9.99999 -10,-9.99998 l -40.00007,3e-5 C 290,741.02976 285,736.02971 285,721.02971 l 0,-20 c 0,-14.75029 4.99997,-20.02955 20,-20.02955 z"
       id="Path 9"
       inkscape:connector-curvature="0"
       style="fill:#4a4a4a"
       sodipodi:nodetypes="ccccccccccsccccccccccccccsccccc" />
    <path
       d="m 145,681.02971 0,20 20,0 -0.24996,59.97061 -19.75004,0 0,20.02939 70,0 0,-20.02939 -20,-3.1e-4 L 210,746 c 0,0 15,35.02971 45.49999,35.02973 L 270,781.02971 270,756 l -10,0 c -18.75024,0 -30,-30 -30,-30 l 25,-25 15,0.0297 0,-20.02939 -55,0 0,20.02971 10,0 -30,29.99968 0,-30 10,0 L 205,681 z"
       id="Path 10"
       inkscape:connector-curvature="0"
       style="fill:#4a4a4a"
       sodipodi:nodetypes="cccccccccccccccccccccccccc" />
    <path
       d="m 405,681.02971 c 0,0 75.07313,0 90,0 14.92687,0 20,5.07157 20,20 l 0,10 c 0,15 -5,20 -15,20 10,0 15,5 15,20 l 0,10 c 0,14.96461 -4.83681,20 -20,20 -15.1632,0 -90,0 -90,0 l 0,-20 20,0 0,-60 -20,0 z m 50,20 0,20 20,0 c 10,0 10,0 10,-10 0,-10 0,-10 -10,-10 z m 0,40 0,20 20,0 c 10,0 10,0 10,-10 0,-10 0,-10 -10,-10 z"
       id="Path 4"
       inkscape:connector-curvature="0"
       style="fill:#4a4a4a"
       sodipodi:nodetypes="cscccccscccccccccsscccczsc" />
    <path
       d="m 140,821 c 0,0 79.53807,0.0591 94.5007,0.0591 14.96263,0 20.34972,5.09483 20.39949,20.05941 l 0.19954,59.99985 c 0.0499,14.99992 -5.00002,20.00966 -20.19954,20.00016 l -94.5007,-0.0591 -0.44947,-19.94095 19.95017,0 1.5e-4,-60.05905 -19.95017,0 z m 49.70024,20.11893 -1.5e-4,59.94048 c 0,0 20.20008,0.059 25.2001,0.059 10,0 10.23072,-4.99994 10.19946,-10 l -0.24931,-39.88091 c -0.0625,-9.99997 0,-10 -10,-10 -4.75001,0 -25.15012,-0.11866 -25.15012,-0.11866 z"
       id="path15"
       inkscape:connector-curvature="0"
       style="fill:#4a4a4a"
       sodipodi:nodetypes="cssssccccccccsssscc" />
    <path
       d="m 20,841 c 0,-15 5.00001,-19.9997 20.00005,-19.99969 L 85,821.00035 c 10,0 15,5 15,15 l 1.6e-4,-15.00004 20.00004,0 -2e-4,35.00004 -25.00005,4e-5 0,-4.57455 C 95,841.00035 95,841.00035 85,841.00035 l -25.00013,2e-4 c -10,8e-5 -10,0 -10,10 0,5.00016 0,34.98605 0,39.99948 0,10 0,9.99987 10,10 L 85,901.00035 c 10,0 10,0 9.9999,-9.97653 l -2e-5,-5.02343 24.99992,-4e-5 c 0,0 2e-4,0 2e-4,15 0,15 -4.99997,19.99996 -20,20 l -59.99995,1.6e-4 C 25.00001,921.00055 20,916.00035 20,901.00035 c 0,-15 0,-44.99988 0,-60.00035 z"
       id="path17"
       inkscape:connector-curvature="0"
       style="fill:#4a4a4a"
       sodipodi:nodetypes="ssccccccccssssccccsssss" />
    <path
       d="m 1065.0001,701.02978 c 0,-14.99994 5.0002,-19.90673 19.9999,-20.00007 l 45.0002,-0.28002 c 10,0 15,5 15,15 l -10e-5,-15.0002 19.9999,0 2e-4,35.0002 -25,2e-4 0,-4.92826 C 1140.0002,700.74969 1140,701 1130,701 l -25,0 c -10,0 -10,0.0299 -10,10.0299 0,5.00013 0,34.98659 0,40 0,10 6e-4,10.11208 10,10 l 25.0002,-0.28021 c 10,0 10,0 10,-10 0,-10 -2e-4,-9.74969 -10.0002,-9.74969 l 2e-4,-15.25031 35,0 L 1165,781 l -20,0 2e-4,-15.25031 C 1145.0002,775.74969 1140,781 1130,781 l -45.0001,0.03 c -15,0.01 -20,-5.0001 -19.9999,-20.00007 z"
       id="path19"
       inkscape:connector-curvature="0"
       style="fill:#4a4a4a"
       sodipodi:nodetypes="ssccccccccsssscccccccccsss" />
    <path
       style="fill:#4d4d4d;fill-opacity:1;fill-rule:evenodd;stroke:none"
       d="m 645,681.02971 75,0 c 10,0 15,5 15,15 l 0.44282,-15 19.55718,0 0,35 -25,0 0,-4.93521 c 0,-10.06479 0,-10.06479 -10,-10.06479 l -25,0 0,20 20,0 0,20 -20,0 0,20 25,0 c 10,0 10,0 10,-10 l 0,-5 25,0 0,35 -20,0 0,-15 c 0,10 -5,15 -15,15 l -75,0 0,-20 20,0 0,-60 -20,0 z"
       id="path3070-7-2-5"
       inkscape:connector-curvature="0"
       sodipodi:nodetypes="ccccccccccccccccccccccccccccc" />
    <path
       style="fill:#4d4d4d;fill-opacity:1;fill-rule:evenodd;stroke:none"
       d="m 524.99996,681.02971 75.00004,0 c 10,0 15,5 15,15 l 0.0624,-15 19.9376,0 0,35 -25,0 0,-4.93521 c 0,-10.06479 0,-10.06479 -10,-10.06479 l -25,0 0,20 20,0 0,20 -20,0 0,20 20,0 0,20 -70,0 0,-20 20,0 0,-60 -20,0 z"
       id="path3070-1-0"
       inkscape:connector-curvature="0"
       sodipodi:nodetypes="ccccccccccccccccccccccc" />
    <path
       style="fill:#4d4d4d;fill-opacity:1;stroke:none"
       d="m 900,681.02971 -60,0 0,20 10,0 0,20 -35,0 0,-20 10,0 0,-20 -60,0 0,20 20,0 0,60 -20,0 0,20 60,0 0,-20 -10,0 0,-20 35,0 0,20 -10,0 0,20 60,0 0,-20 -20,0 0,-60 20,0 z"
       id="path3933"
       inkscape:connector-curvature="0"
       sodipodi:nodetypes="ccccccccccccccccccccccccccccc" />
    <path
       style="fill:#4d4d4d;fill-opacity:1;fill-rule:evenodd;stroke:none"
       d="m 350,821 -70,0 0,20.0002 20,0 0,60 -20,0 0,20 70,0 0,-20 -20,0 0,-60 20,0 z"
       id="path3933-6"
       inkscape:connector-curvature="0"
       sodipodi:nodetypes="ccccccccccccc" />
    <path
       d="M 429.99995,821.02935 430,841 l -20,0 0.0179,60.0953 L 440,901 c 10,0 10,0 10.02327,-9.74995 l 0.0125,-5.25005 24.98223,0.0953 0,35 -20.01803,-0.0953 0,-15 c 0,10 -5,15 -15,15 l -80,0 0.018,-19.9047 20,0 L 379.6076,841.60044 360,841 l 0,-20 69.99995,0.0298 z"
       id="Path 5-2"
       inkscape:connector-curvature="0"
       style="fill:#4a4a4a;fill-rule:evenodd"
       sodipodi:nodetypes="cccccccccccccccccccc" />
    <path
       style="fill:#4d4d4d;fill-opacity:1;fill-rule:evenodd;stroke:none"
       d="m 500,821 0,20.0002 20,0 0,60 -20,0 0,20 60,0 0,-20 -10,0 0,-40 30,60 10,0 30,-60 0,40 -10,0 0,20 60,0 0,-20 -20,0 0,-60 20,0 0,-20.0002 -55,2e-4 -30,60 -30,-60 z"
       id="path3933-6-4-0"
       inkscape:connector-curvature="0"
       sodipodi:nodetypes="cccccccccccccccccccccccccc" />
    <path
       style="fill:#4d4d4d;fill-opacity:1;stroke:none"
       d="m 680,821 0,20 20,0 0,60 -20,0 0,20 65,0 0,-20 -15,0 0,-40 40,60 30,0 3e-5,-80 19.99997,0 0,-20 -64.99997,0 0,20 15,0 -3e-5,40 -40,-60 z"
       id="path4130"
       inkscape:connector-curvature="0"
       sodipodi:nodetypes="ccccccccccccccccccccc" />
    <path
       d="m 860,821 60,0 c 14.96263,0 19.88763,5 20,20 l 0,60 c -0.44947,15.0002 -4.80048,20.0001 -20,20 l -59.55053,-2e-4 C 845,921 840,916 840,901 l 0,-60 c 0,-15 5,-20 20,-20 z m 20,20 c -10,0 -10,0 -10,10 l 0,40 c 0,10 0,10 10,10 l 20,0 c 10,0 10,0 10,-10 l -0.24999,-39.9998 C 909.68751,840.9996 910,841 900,841 z"
       id="path15-5"
       inkscape:connector-curvature="0"
       style="fill:#4a4a4a;fill-rule:evenodd"
       sodipodi:nodetypes="cccccccccccccccccc" />
    <path
       d="m 960.09986,821.0001 c 0,0 74.58804,0 89.55064,0 14.9627,0 20.2502,5.0953 20.3995,20.0592 l 0.1996,19.9998 c 0.1496,14.9993 -5.0001,20.0002 -20.1996,20.0002 l -39.8005,0 -0.1995,20 20,0 -0.05,20.059 -69.95017,-0.059 0.0498,-19.9998 19.95017,0 L 980,841 l -19.95017,0 z m 49.70014,20.0592 0.25,20.0002 c 0,0 15,-2e-4 20,-2e-4 10,0 10,0 10,-10 0,-10 0,-10 -10,-10 -4.75,0 -20.25,0 -20.25,0 z"
       id="path15-9"
       inkscape:connector-curvature="0"
       style="fill:#4a4a4a;fill-rule:evenodd"
       sodipodi:nodetypes="cssssccccccccccccsccc" />
    <path
       d="m 1100,821 59.5505,2e-4 c 14.9627,0 20.4495,5.0352 20.4495,19.9998 l 0,60 c 0,15 -5,20 -20,20 l -20,0 0,5 30,0 0,20 -30,0 c -15,0 -20,-5 -20,-20 0,-5 0,-5 0,-5 l -20,0 c -15,0 -20,-5 -20,-20 l 0,-60 c 0,-15 5,-20 20,-20 z m 20,20 c -10,0 -10,0 -10,10 l 0,40 c 0,10 0,10 10,10 l 0,-10 20,0 0,10 c 10,0 10,0 10,-10 l 0,-40 c 0.055,-10 0,-10 -10,-10 z"
       id="path15-5-5-2-9"
       inkscape:connector-curvature="0"
       style="fill:#4a4a4a;fill-rule:evenodd"
       sodipodi:nodetypes="ccccccccccccccccccccccccccc" />
    <path
       style="fill:#4d4d4d;stroke:none"
       d="m 1190,681.02971 0,20 20,0 0,60 -20,0 0,20 70,0 0,-20 -20,0 0,-15 25,0 c 5,0 5,0 5,5 l 0,10 c 0,15 5,20 20,20 l 20,0 0,-20 -5,0 c -5,0 -5,0 -5,-5 l 0,-10 c 0,-10 -5,-15 -15,-15 10,0 15,-5 15,-15 l 0,-20 c 0,-15 -5,-15 -20,-15 z m 50,20 20,0 c 10,0 10,0 10,10 0,10 0,10 -10,10 l -20,0 z"
       id="path4275"
       inkscape:connector-curvature="0"
       sodipodi:nodetypes="cccccccccccccccccccccccccccccc" />
    <path
       style="fill:#4d4d4d;fill-opacity:1;fill-rule:evenodd;stroke:none"
       d="m 1570,681.02971 -20,0 0,15 c 0,-10 -5,-15 -15,-15 l -50,0 c -10,0 -15,5 -15,15 l 0,-15 -20,0 0,35 25,0 0,-5.2673 c 0,-9.7327 0,-9.7327 10,-9.7327 l 10,0 0,60 -20,0 0,20 70,0 0,-20 -20,0 0,-60 10,0 c 10,0 10,0 10,10 l 0,5 25,0 z"
       id="path3933-6-2"
       inkscape:connector-curvature="0"
       sodipodi:nodetypes="ccccccccccccccccccccccccc" />
    <path
       style="fill:#4d4d4d;stroke:none"
       d="m 1590,681.02971 60,0 0,20 -10,0 0,50 c 0,10 0,10 10,10 l 15,0 c 10,0 10,0 10,-10 l 0,-50 -10,0 0,-20 60,0 0,20 -20,0 0,60 c 0,15 -5,20 -20,20 l -55,0 c -15,0 -20,-5 -20,-20 l 0,-60 -20,0 z"
       id="path4336"
       inkscape:connector-curvature="0"
       sodipodi:nodetypes="ccccccccccccccccccccc" />
    <path
       style="fill:#4d4d4d;fill-rule:evenodd;stroke:none"
       d="m 1345,821 -60,0 0,20 10,0 -20,45 -20,-45 10,0 0,-20 -60,0 0,20 20,0 40,80 20,0 40,-80 20,0 z"
       id="path4336-3"
       inkscape:connector-curvature="0"
       sodipodi:nodetypes="cccccccccccccccc" />
    <path
       style="fill:#4d4d4d;stroke:none"
       d="m 1330,681.02971 20,0 0.061,15 c 0,-10 5,-15 15,-15 l 64.9389,0 0,20 -65,60 30,0 c 10,0 10,0 10,-10 l 0,-5 25,0 0,15 0,20 -19.748,0 -0.252,-15 c 0,10 -5,15 -15,15 l -65,0 0,-20 65,-60 -29.9389,0 c -10,0 -10,0 -10,10 l 0,5 -25.0611,0 z"
       id="path4697"
       inkscape:connector-curvature="0"
       sodipodi:nodetypes="cccccccccccccccccccccccc" />
    <path
       style="fill:#4d4d4d;stroke:none"
       d="m 20,1321.0002 0,35 25,0 0,-5 c 0,-10 0,-10 10,-10 l 0,60 -20,0 0,20 70,0 0,-20 -20,0 0,-80 -30,0 c -10,0 -15,5 -15,15 l 0,-15 z"
       id="path7244"
       inkscape:connector-curvature="0"
       sodipodi:nodetypes="cccccccccccccccc" />
    <path
       style="fill:#4d4d4d;stroke:none"
       d="m 125,1421.0002 c 0,0 0,-16.6667 0,-25 -3.21013,-29.2568 53.44006,-26.5653 55,-44.9066 0,-9.9066 0,-10.0934 -10,-10.0934 l -10,0 c -10,0 -10,0 -10,9.7398 l 0,5.2602 -25,0 0,-35 20,0 0,15 c 0,-10 5,-15 15,-15 l 30,0 c 13.66667,0.3333 20.33333,7 20,20 l 0,15 c 0,25 -55,25 -55,40 l 0,5 c 0,0 10,0 20,0 10,0 10,0 10,-9.6016 l 0,-5.3984 25,0 0,35 -20,0 0,-15 c 0,10 -5,15 -15,15 z"
       id="path7246"
       inkscape:connector-curvature="0"
       sodipodi:nodetypes="ccccccccccccccccczcccccccc" />
    <path
       style="fill:#4d4d4d;stroke:none"
       d="m 225,1356.0002 0,-35 20,0 0,15 c 0,-10 5,-15 15,-15 l 30,0 c 13.61558,0.4126 19.71271,7.5919 20,20 l 0,20 c -1.30667,4.8533 -3.42124,9.1007 -10,10 5.66667,0.6667 9,4 10,10 l 0,20 c 0.42098,15.2465 -7.79456,20.0382 -20,20 l -30,0 c -10,0 -15,-5 -15,-15 l 0,15 -20,0 0,-35 25,0 0,5.0449 c 0,9.9551 0,9.9551 10,9.9551 l 10,0 c 10,0 10,0.09 10,-9.9551 0,-10.0449 0,-10.0449 -10,-10.0449 l -10,0 0,-20 10,0 c 10,0 10,0.1867 10,-9.9066 0,-10.0934 0,-10.0934 -10,-10.0934 l -10,0 c -10,0 -10,0 -10,9.7398 l 0,5.2602 z"
       id="path7248"
       inkscape:connector-curvature="0"
       sodipodi:nodetypes="ccccccccccccccccccccczcccczccccc" />
    <path
       style="fill:#4d4d4d;stroke:none"
       d="m 425,1321.0002 50,0 c 10,0 15,5 15,15 l 0.5,-15 19.5,0 0,35 -25,0 0,-4.9066 c 0,-10.0934 0,-10.0934 -10,-10.0934 l -20,0 0,20 35,0 c 13.36502,0.2873 20.6297,6.3844 20,20 l 0,20 c -0.66667,13.6667 -7.33333,20.3333 -20,20 l -30,0 c -10,0 -15,-5 -15,-15 l 0,15 -20,0 0,-35 25,0 0,5.25 c 0,9.75 0,9.75 10,9.75 0,0 4.26166,0 10,0 10,0 10,0.7969 10,-9.6016 0,-10.3984 0,-10.3984 -10,-10.3984 l -45,0 z"
       id="path7255"
       inkscape:connector-curvature="0"
       sodipodi:nodetypes="cccccccccccccccccccccccczccc" />
    <path
       style="fill:#4d4d4d;stroke:none"
       d="m 545,1321.0002 c -15,0 -19.71271,6.635 -20,20 l 0,60 c 0.28729,13.684 6.38442,20.9771 20,20 l 45,0 c 13.04605,0.032 20.28225,-6.037 20,-20 l 0,-20 c 0.42098,-14.8734 -7.79456,-19.7466 -20,-20 l -25,0 c -10,0 -10,-0.5 -10,-10.25 0,-9.75 0,-9.75 10,-9.75 l 10,0 c 10,0 10,0 10,10 l 0,5 25,0 0,-35 -20,0 0,15 c 0,-10 -5,-15 -15,-15 z m 20,60 5,0 c 10,0 10,0 10,10 0,10 0,10 -10,10 l -5,0 c -10,0 -10,0 -10,-10 0,-10 0,-10 10,-10 z"
       id="path7257"
       inkscape:connector-curvature="0"
       sodipodi:nodetypes="ccccccccczccccccccccccccccc" />
    <path
       style="fill:#4d4d4d;stroke:none"
       d="m 745,1321.0002 c -15,0 -20,5 -20,20 l 0,20 c 0,5 5,10 10,10 -5,0 -10,5 -10,10 l 0,20 c 0,15 5,20 20,20 l 45,0 c 13.33333,0.6667 20,-6 20,-20 l 0,-20 c 0,-5 -5,-10 -10,-10 5,0 10,-5 10,-10 l 0,-20 c 0,-15 -5,-20 -20,-20 z m 20,20 5,0 c 10,0 10,0 10,10 0,10 0,10 -10,10 l -5,0 c -10,0 -10,0 -10,-10 0,-10 0,-10 10,-10 z m 0,40 5,0 c 10,0 10,0 10,10 0,10 0,10 -10,10 l -5,0 c -10,0 -10,0 -10,-10 0,-10 0,-10 10,-10 z"
       id="path7264"
       inkscape:connector-curvature="0"
       sodipodi:nodetypes="ccccccccccccccccccccccccccccc" />
    <path
       style="fill:#4d4d4d;fill-rule:evenodd;stroke:none"
       d="m 1705,821 0,20 15,0 30,40 0,20 -20,0 0,20 20,0 30,0 20,0 0,-20 -20,0 0,-20 30,-40 15,0 0,-20 -55,0 0,20 10,0 -15,20 -15,-20 10,0 0,-20 -55,0 z"
       id="path3177-6"
       inkscape:connector-curvature="0" />
    <path
       style="fill:#4d4d4d;stroke:none"
       d="m 1565,821 0,20 25,0 20.625,30 -20.625,30 -25,0 0,20 45,0 17.5,-25.4687 17.5,25.4687 45,0 0,-20 -25,0 -20.625,-30 20.625,-30 25,0 0,-20 -45,0 -17.5,25.4688 L 1610,821 l -45,0 z"
       id="path3357"
       inkscape:connector-curvature="0" />
    <path
       style="fill:#4d4d4d;stroke:none"
       d="m 1365,841 0,-20 65,0 0,20 -15,0 10,40 25,-60 10,0 25,60 10,-40 -15,0 0,-20 65,0 0,20 -20,0 -25,80 -25,0 -20,-50 -20,50 -25,0 -25,-80 z"
       id="path3660"
       inkscape:connector-curvature="0"
       sodipodi:nodetypes="cccccccccccccccccccccc" />
    <path
       style="fill:#4d4d4d;fill-rule:evenodd;stroke:none"
       d="m 705.03779,1321.0002 -45,0 c -10,0 -15,5 -15,15 l -0.5,-15 -19.5,0 0,35 25,0 0,-4.9066 c 0,-10.0934 0,-10.0934 10,-10.0934 l 15,0 -0.0378,10 c -34.99999,20 -30,50 -30,70 l 30,0 c 0,-20 -4.99999,-50 29.96221,-70 z"
       id="path7255-6"
       inkscape:connector-curvature="0"
       sodipodi:nodetypes="ccccccccccccccc" />
    <path
       style="fill:#4d4d4d;fill-rule:evenodd;stroke:none"
       d="m 325,1401.0002 85,0 0,-20 -55,0 0,-5 c 15,-20 25,-40 30,-55 l -30,0 c -5,20 -15,35 -30,55 z"
       id="path7255-6-6"
       inkscape:connector-curvature="0"
       sodipodi:nodetypes="ccccccccc" />
    <path
       style="fill:#4d4d4d;stroke:none"
       d="m 395,1361.0002 0,60 -25,0 0,-60 z"
       id="path3048"
       inkscape:connector-curvature="0"
       sodipodi:nodetypes="ccccc" />
    <path
       style="fill:#4d4d4d;fill-rule:evenodd;stroke:none"
       d="m 890.01546,1421.0872 c 15,0 19.7128,-6.635 20,-20 l 0,-60 c -0.2872,-13.684 -6.3844,-20.9771 -20,-20 l -45,0 c -13.046,-0.032 -20.2822,6.037 -20,20 l 0,20 c -0.4209,14.8734 7.7946,19.7466 20,20 l 25,0 c 10,0 10,0.5 10,10.25 0,9.75 0,9.75 -10,9.75 l -10,0 c -10,0 -10,0 -10,-10 l 0,-5 -25,0 0,35 20,0 0,-15 c 0,10 5,15 15,15 z m -20,-60 -5,0 c -10,0 -10,0 -10,-10 0,-10 0,-10 10,-10 l 5,0 c 10,0 10,0 10,10 0,10 0,10 -10,10 z"
       id="path7257-6"
       inkscape:connector-curvature="0"
       sodipodi:nodetypes="ccccccccczccccccccccccccccc" />
    <path
       d="m 945.24999,1321 44.75001,2e-4 c 14.9626,0 19.8876,5 20,20 l 0,60 c -0.4495,15.0002 -4.8005,20.0001 -20,20 l -44.30054,-4e-4 C 930.24999,1421 925.24999,1416 925.24999,1401 l 0,-60 c 0,-15 5,-20 20,-20 z m 20,20 c -10,0 -10,0 -10,10 l 0,40 c 0,10 0,10 10,10 l 4.75001,2e-4 c 10,0 10,0 10,-10 l -0.25,-39.9998 c -0.062,-10.0006 0.25,-10.0002 -9.75,-10.0002 z"
       id="path15-5-5"
       inkscape:connector-curvature="0"
       style="fill:#4a4a4a;fill-rule:evenodd"
       sodipodi:nodetypes="cccccccccccccccccc" />
    <path
       style="fill:#4d4d4d;fill-rule:evenodd;stroke:none"
       d="m 931.91947,681.02971 0,20 17.3221,0 -24.24157,60 -18.08053,0 0,20 65,0 0,-20 -16.91947,0 4.04026,-10 35.75841,0 4.0403,10 -16.9195,0 0,20 65.00003,0 0,-20 -18.0805,0 -31.91953,-80 z m 45,25.7474 9.79869,24.2526 -19.59738,0 z"
       id="path4846"
       inkscape:connector-curvature="0"
       sodipodi:nodetypes="ccccccccccccccccccccccc" />
    <path
       style="fill:#4d4d4d;stroke:none"
       d="m 45,981 0,25 25,0 0,-5 15,0 c 5,0 5,0 5,5 0,5 0,5 -5,5 l -25,0 c -15,0 -20,5 -20,20 l 0,10 c 0,15 5,20 20,20 l 30,0 c 5,0 10,-5 10,-10 0,5 5,10 10,10 l 20,0 0,-20 -10,0 0,-10 0,-30 c 0,-15 -5,-20 -20,-20 l -20,0 c -10,0 -15,5 -15,15 l 0,-15 z m 30,50 10,0 c 5,0 5,0 5,5 0,5 0,5 -5,5 l -10,0 c -5,0 -5,0 -5,-5.0853 0,-5.0852 0,-4.9147 5,-4.9147 z"
       id="path3475"
       inkscape:connector-curvature="0"
       sodipodi:nodetypes="ccccssscccccccccccccccccsszsszs" />
    <path
       style="fill:#4d4d4d;stroke:none"
       d="m 140,951 0,20 20,0 0,90 20,0 c 5,0 10,-5 10,-10 0,5 5,10 10,10 l 20,0 c 15,0 20,-5 20,-20 l 0,-40 c 0,-15 -5,-20 -20,-20 l -20,0 c -5,0 -10,4.55061 -10,10 l 0,-40 z m 50,50 15,0 c 5,0 5,0 5,5 l 0,30 c 0,5 0,5 -5,5 l -15,0 z"
       id="path3480"
       inkscape:connector-curvature="0"
       sodipodi:nodetypes="cccccccccccccccccccccc" />
    <path
       style="fill:#4d4d4d;stroke:none"
       d="m 260,1041 0,-40 c 0,-15 5,-20 20,-20 l 30,0 c 5,0 10,5 10,10 l 0,-10 20,0 0,30 -25,0 0,-10 -20,0 c -5,0 -5,0 -5,5 l 0,30 c 0,5 0,5 5,5 l 19.76302,0 0.23698,-10 25,0 0,30 -20,0 0,-10 c 0,5 -5,10 -10,10 l -30,0 c -15,0 -20,-5 -20,-20 z"
       id="path3485"
       inkscape:connector-curvature="0"
       sodipodi:nodetypes="ccccccccccccccccccccccc" />
    <path
       inkscape:connector-curvature="0"
       style="fill:#4d4d4d;fill-rule:evenodd;stroke:none"
       d="m 440,951 0,90 10,0 0,20 -30,0 c -5,0 -10,-5 -10,-10 0,5 -5,10 -10,10 l -20,0 c -15,0 -20,-5 -20,-20 l 0,-40 c 0,-15 5,-20 20,-20 l 20,0 c 5,0 10,5 10,10 l 0,-20 -20,0 0,-20 z m -30,50 -15,0 c -5,0 -5,0 -5,5 l 0,30 c 0,5 0,5 5,5 l 15,0 z"
       id="path3480-6"
       sodipodi:nodetypes="cccccccccccccccccccccccc" />
    <path
       style="fill:#4d4d4d;fill-rule:evenodd;stroke:none"
       d="m 480,981 c -15,0 -20,5 -20,20 l 0,40 c 0,15 5,20 20,20 l 30,0 c 5,0 10,-5 10,-10 l 0,10 20,0 0,-25 -25,0 -0.25,5 -19.75,0 c -5,0 -5,0 -5,-5 l 0,-5 25,0 25,0 0,-30 c 0,-15 -5,-20 -20,-20 z m 10,25 c 0,-5 0,-5 5,-5 l 14.5,0 c 5.5,0 5.5,0 5.5,5 l 0,5 -25,0 z"
       id="path3485-3"
       inkscape:connector-curvature="0"
       sodipodi:nodetypes="cccccccccccccccccccccccccc" />
    <path
       style="fill:#4d4d4d;stroke:none"
       d="m 590,951 c -15,0 -20,5 -20,20 l 0,10 -10,0 0,20 10,0 0,40 -10,0 0,20 50,0 0,-20 -10,0 0,-40 10,0 0,-20 -10,0 0,-5 c 0,-5 0,-5 5,-5 l 15,0 0,5 25,0 0,-25 -20,0 0,15 c 0,-10 -5,-15 -15,-15 z"
       id="path3526"
       inkscape:connector-curvature="0"
       sodipodi:nodetypes="cccccccccccccccccccccccccc" />
    <path
       style="fill:#4d4d4d;stroke:none"
       d="m 760,951 0,20 10,0 0,70 -10,0 0,20 45,0 0,-20 -5,0.2813 0,-35.5313 c 0,-4.75 0,-4.75 5,-4.75 l 10,0 c 5,0 5,0 5,4.75 l 0,35.25 -5,0 0,20 45,0 0,-20 -10,0 0,-40 c 0,-15 -5,-20 -20,-20 l -10,0 -10,0 c -5,0 -10,5 -10,10 l 0,-40 z"
       id="path3559"
       inkscape:connector-curvature="0"
       sodipodi:nodetypes="cccccccccccccccccccccccccc" />
    <path
       style="fill:#4d4d4d;stroke:none"
       d="m 905,951 c -6.90356,0 -12.5,5.59644 -12.5,12.5 0,6.90356 5.59644,12.5 12.5,12.5 6.90356,0 12.5,-5.59644 12.5,-12.5 0,-6.90356 -5.59644,-12.5 -12.5,-12.5 z m -25,30 0,20 10,0 0,40 -10,0 0,20 50,0 0,-20 -10,0 0,-60 z"
       id="path3564"
       inkscape:connector-curvature="0"
       sodipodi:nodetypes="sssssccccccccccc" />
    <path
       style="fill:#4d4d4d;fill-rule:evenodd;stroke:none"
       d="m 985,951 c -6.90356,0 -12.5,5.59644 -12.5,12.5 0,6.90356 5.59644,12.5 12.5,12.5 6.9036,0 12.5,-5.59644 12.5,-12.5 0,-6.90356 -5.5964,-12.5 -12.5,-12.5 z m -25,30 0,20 10,0 0,75 -15,0 0,-5 -25,0 0,25 20,0 0,-10 c 0,5 5,10 10,10 l 20,0 c 15,0 20,-5 20,-20 l 0,-95 z"
       id="path3564-8"
       inkscape:connector-curvature="0"
       sodipodi:nodetypes="sssssccccccccccssscc" />
    <path
       style="fill:#4d4d4d;stroke:none"
       d="m 1020,951 0,20 10,0 0,70 -10,0 0,20 50,0 0,-20 -10,0 10,-10 c 10,15 15,30 35,30 l 15,0 0,-25 -15,0 c -10,0 -15,-5 -20,-20 l 15,-15 20,0 0,-20 -50,0 0,20 5,0 -15,15 0,-65 z"
       id="path3712"
       inkscape:connector-curvature="0"
       sodipodi:nodetypes="ccccccccccsccscccccccccc" />
    <path
       style="fill:#4d4d4d;stroke:none"
       d="m 1140,951 0,20 10,0 0,70 -10,0 0,20 60,0 0,-20 -20,0 0,-90 z"
       id="path3721"
       inkscape:connector-curvature="0"
       sodipodi:nodetypes="ccccccccccc" />
    <path
       style="fill:#4d4d4d;stroke:none"
       d="m 1220,981 0,20 10,0 0,40 -10,0 0,20 45,0 0,-20 -5,0 0,-40 15,0 c 5,0 5,0 5,5 l 0,34.9786 -5,0.021 0,20 40,0 0,-20 -5,0 0,-40 15,0 c 5,0 5,0 5,5 l 0,35 -5,0 0,20 45,0 0,-20 -10,0 0,-40 c 0,-15 -5,-20 -20,-20 l -20,0 c -5,0 -10,5 -10,10 0,-5 -5,-10 -10,-10 l -30,0 c -5,0 -10,5 -10,10 l 0,-10 z"
       id="path3723"
       inkscape:connector-curvature="0"
       sodipodi:nodetypes="cccccccccccccccccccccccccccccccccccc" />
    <path
       style="fill:#4d4d4d;stroke:none"
       d="m 1380,981 0,20 10,0 0,40 -10,0 0,20 45,0 0,-20 -5,0 0,-40 15,0 c 5,0 5,0 5,5 l 0,35 -5,0 0,20 45,0 0,-20 -10,0 0,-40 c 0,-15 -5,-20 -20,-20 l -20,0 c -5,0 -10,5 -10,10 l 0,-10 z"
       id="path3723-9"
       inkscape:connector-curvature="0"
       sodipodi:nodetypes="cccccccccccccccccccccccc" />
    <path
       d="m 1520,981 44.75,2e-4 c 14.9626,0 19.8876,5 20,20 l -0.25,40.0002 c -0.4495,15.0002 -4.8005,20.0001 -20,20 l -44.3005,-4e-4 c -15.4495,2e-4 -20.4495,-4.9998 -20.4495,-19.9998 L 1500,1001 c 0,-15 5,-20 20,-20 z m 20,20 c -10,0 -10,0 -10,10 l -0.25,20.0002 c 0,10 0,10 10,10 l 4.75,2e-4 c 10,0 10,0 10,-10 l 0,-20 c -0.062,-10.0006 0.25,-10.0002 -9.75,-10.0002 z"
       id="path15-5-6"
       inkscape:connector-curvature="0"
       style="fill:#4a4a4a;fill-rule:evenodd"
       sodipodi:nodetypes="cccccccccccccccccc" />
    <path
       style="fill:#4d4d4d;stroke:none"
       d="m 1600,981 0,20 10,0 0,70 -10,0 0,20 50,0 0,-20 -10,0 0,-20 c 0,5 5,10 10,10 l 20,0 c 15,0 20,-5 20,-20 l 0,-40 c 0,-15 -5,-20 -20,-20 l -20,0 c -5,0 -10,5 -10,10 l 0,-10 z m 40,20 15,0 c 5,0 5,0 5,5 l 0,30 c 0,5 0,5 -5,5 l -15,0 z"
       id="path3799"
       inkscape:connector-curvature="0"
       sodipodi:nodetypes="cccccccccccccccccccccccccc" />
    <path
       style="fill:#4d4d4d;fill-rule:evenodd;stroke:none"
       d="m 1780,981 0,90 10,0 0,20 -40,0 0,-40 c 0,5 -5,10 -10,10 l -20,0 c -15,0 -20,-5 -20,-20 l 0,-40 c 0,-15 5,-20 20,-20 l 20,0 c 5,0 10,5 10,10 l 0,-10 z m -30,20 -15,0 c -5,0 -5,0 -5,5 l 0,30 c 0,5 0,5 5,5 l 15,0 z"
       id="path3799-1"
       inkscape:connector-curvature="0"
       sodipodi:nodetypes="cccccccccccccccccccccc" />
    <path
       style="fill:#4d4d4d;stroke:none"
       d="m 1800,981 0,20 10,0 0,40 -10,0 0,20 50,0 0,-20 -10,0 0,-30 c 0,-5 5,-10 10,-10 l 20,0 0,10 20,0 0,-30 -15,0 0,15 c 0,-10 -5,-15 -10,-15 l -15,0 c -5,0 -10,5 -10,10 l 0,-10 z"
       id="path3825"
       inkscape:connector-curvature="0"
       sodipodi:nodetypes="cccccccccccccccccccccc" />
    <path
       d="m 59.74986,1161.2505 30,0.03 c 10,0 15,5 15,15 l 0,-15 20.25014,-0.03 -0.25014,25.0295 -25,0 c 0,-5 0,-5 -5,-5 l -20,0 c -5,0 -5,0 -5,5 0,5 0,5 5,5 l 30.00011,-0.03 C 119.75,1191.25 125,1196 125,1211 l 0,10 c 0,15 -4.99997,20 -20,20 l -30,0 c -10,0 -15,-5 -15,-15 l 0,15 -20,0 0,-25 25,0 c 0,5 0,5 5,5 l 20,0 c 5,0 5,0 5,-5 0,-5 -0.25014,-4.72 -5.25014,-4.72 l -30.00007,0 c -14.99993,10e-5 -19.99993,-5 -19.99993,-20 l 0,-10 c 0,-14.7503 4.99997,-20.0295 20,-20.0295 z"
       id="Path 9-7"
       inkscape:connector-curvature="0"
       style="fill:#4a4a4a;fill-rule:evenodd"
       sodipodi:nodetypes="cccccccccscccccccccccccsccccc" />
    <path
       style="fill:#4d4d4d;stroke:none"
       d="m 160,1200 0,30 -20,0 0,20 20,0 0,20 0,20 c 0,15 5,20 20,20 l 20,0 c 5,0 10,-5 10,-10 l 0,10 20,0 0,-30 -25,0 0,5 c 0,5 0,5 -5,5 l -5,0 c -5,0 -5,0 -5,-5 l 0,-35 20,0 0,-20 -20,0 0,-30 z"
       transform="translate(0,-69)"
       id="path3854"
       inkscape:connector-curvature="0"
       sodipodi:nodetypes="cccccccccccccccccccccccc" />
    <path
       style="fill:#4d4d4d;fill-rule:evenodd;stroke:none"
       d="m 340,1241 0,-20 -10,0 0,-40 10,0 0,-20 -45,0 0,20 5,0 0,40 -15,0 c -5,0 -5,0 -5,-5 l 0,-35 5,0 0,-20 -45,0 0,20 10,0 0,40 c 0,15 5,20 20,20 l 20,0 c 5,0 10,-5 10,-10 l 0,10 z"
       id="path3723-9-0"
       inkscape:connector-curvature="0"
       sodipodi:nodetypes="cccccccccccccccccccccccc" />
    <path
       style="fill:#4d4d4d;fill-rule:evenodd;stroke:none"
       d="m 470,1161 -50,0 0,20 10,0 -15,30 -15,-30 10,0 0,-20 -50,0 0,20 10,0 35,60 20,0 35,-60 10,0 z"
       id="path4336-3-6"
       inkscape:connector-curvature="0"
       sodipodi:nodetypes="cccccccccccccccc" />
    <path
       style="fill:#4d4d4d;fill-rule:evenodd;stroke:none"
       d="m 640,1161 0,20 15,0 10,20 -10,20 -15,0 0,20 35,0 7.58839,-20 7.41161,20 35,0 0,-20 -15,0 -10,-20 10,-20 15,0 0,-20 -35,0 -7.38649,20 L 675,1161 z"
       id="path3357-5"
       inkscape:connector-curvature="0"
       sodipodi:nodetypes="ccccccccccccccccccccc" />
    <path
       style="fill:#4d4d4d;fill-rule:evenodd;stroke:none"
       d="m 480,1181 0,-20 50,0 0,20 -10,0 7.43826,35 17.56174,-45 10,0 17.75,45 7.25,-35 -10,0 0,-20 50,0 0,20 -10,0 -20,60 -30,0 -10,-30 -10,30 -30,0 -20,-60 z"
       id="path3660-9"
       inkscape:connector-curvature="0"
       sodipodi:nodetypes="cccccccccccccccccccccc" />
    <path
       style="fill:#4d4d4d;fill-rule:evenodd;stroke:none"
       d="m 780,1256 c -5,0 -5,0 -5,-5 l -25,0 0,25 20,0 0,-10 c 0,5 5,10 10,10 l 30,0 c 15,0 20,-5 20,-19.5 l 0,-75.5 10,0 0,-20 -45,0 0,20 5,0 0,40 -15,0 c -5,0 -5,0 -5,-5 l 0,-35 5,0 0,-20 -45,0 0,20 10,0 0,40 c 0,15 5,20 20,20 l 20,0 c 5,0 10,-5 10,-10 l 0,25 z"
       id="path3723-9-0-8"
       inkscape:connector-curvature="0"
       sodipodi:nodetypes="cccccccccccccccccccccccccccccc" />
    <path
       style="fill:#4d4d4d;fill-rule:evenodd;stroke:none"
       d="m 860,1161 20,0 0.061,15 c 0,-10 5,-15 15,-15 l 54.9389,0 0,20 -55,40 20,0 c 10,0 10,0 10,-10 l 25,0 0,10 0,20 -19.748,0 -0.252,-15 c 0,10 -5,15 -15,15 l -55,0 0,-20 55,-40 -19.9389,0 c -10,0 -10,0 -10,10 l -25.0611,0 z"
       id="path4697-1"
       inkscape:connector-curvature="0"
       sodipodi:nodetypes="cccccccccccccccccccccc" />
    <path
       style="fill:#4d4d4d;fill-rule:evenodd;stroke:none"
       d="m 680,981 c -15,0 -20,5 -20,20 l 0,40 c 0,15 5,20 20,20 l 20,0 c 5,0 10,-5 10,-10 l 0,25 -20,0 c -5,0 -5,0 -5,-5 l -25,0 0,25 20,0 0,-10 c 0,5 5,10 10,10 l 30,0 c 15,0 20,-5 20,-19.5 l 0,-75.5 10,0 0,-20 -20,0 0,10 c 0,-5 -4.9822,-9.9955 -10,-10 z m 15,20 15,0 0,40 -15,0 c -5,0 -5,0 -5,-5 l 0,-30 c 0,-5 0,-5 5,-5 z"
       id="path3723-9-0-8-1"
       inkscape:connector-curvature="0"
       sodipodi:nodetypes="sssssccscccccsssccccccscccsscc" />
    <path
       style="fill:#4d4d4d;stroke:none"
       d="m 980,1161 0,20 30,0 0,-20 z m 0,60 0,20 30,0 0,-20 z"
       id="path4096"
       inkscape:connector-curvature="0"
       sodipodi:nodetypes="cccccccccc" />
    <path
       style="fill:#4d4d4d;fill-rule:evenodd;stroke:none"
       d="m 1040,1161 0,20 30,0 0,-20 z m 0,50 0,30 10,0 c 5,0 10,-5 10,-10 l 0,20 10,0 0,-40 z"
       id="path4096-2"
       inkscape:connector-curvature="0"
       sodipodi:nodetypes="ccccccccccccc" />
    <path
       d="m 1498,-25 59.5505,2e-4 c 14.9627,0 20.4495,5.0352 20.4495,19.9998002 L 1578,55 c 0,15 -5,20 -20,20 l -20,0 0,5 30,0 0,20 -30,0 c -15,0 -20,-5 -20,-20 0,-5 0,-5 0,-5 l -20,0 c -15,0 -20,-5 -20,-20 l 0,-59.9999998 C 1478,-20 1483,-25 1498,-25 z m 20,20.0000002 c -10,0 -10,0 -10,10 L 1508,45 c 0,10 0,10 10,10 l 0,-10 20,0 0,10 c 10,0 10,0 10,-10 l 0,-39.9999998 c 0.055,-10 0,-10 -10,-10 z"
       id="path15-5-5-2-9-4"
       inkscape:connector-curvature="0"
       style="fill:#4a4a4a;fill-rule:evenodd"
       sodipodi:nodetypes="ccccccccccccccccccccccccccc" />
    <path
       style="fill:#4d4d4d;fill-rule:evenodd;stroke:none"
       d="m 1690,75 0,-20 -10,0 0,-40 10,0 0,-19.9999998 -45,0 L 1645,15 l 5,0 0,40 -15,0 c -5,0 -5,0 -5,-5 l 0,-35 5,0 0,-19.9999998 -45,0 L 1590,15 l 10,0 0,40 c 0,15 5,20 20,20 l 20,0 c 5,0 10,-5 10,-10 l 0,10 z"
       id="path3723-9-0-5"
       inkscape:connector-curvature="0"
       sodipodi:nodetypes="cccccccccccccccccccccccc" />
    <path
       style="fill:#4d4d4d;fill-rule:evenodd;stroke:none"
       d="M 1707,-4.9999998 1707,20 l 25,0 0,-5 15,0 c 5,0 5,0 5,5 0,5 0,5 -5,5 l -25,0 c -15,0 -20,5 -20,20 l 0,10 c 0,15 5,20 20,20 l 30,0 c 5,0 10,-5 10,-10 0,5 5,10 10,10 l 20,0 0,-20 -10,0 0,-10 0,-30 C 1782,2.1421965e-7 1777,-4.9999998 1762,-4.9999998 l -20,0 c -10,0 -15,5.00000001421965 -15,14.9999998 l 0,-14.9999998 z M 1737,45 l 10,0 c 5,0 5,0 5,5 0,5 0,5 -5,5 l -10,0 c -5,0 -5,0 -5,-5.0853 0,-5.0852 0,-4.9147 5,-4.9147 z"
       id="path3475-1"
       inkscape:connector-curvature="0"
       sodipodi:nodetypes="ccccssscccccccccccccccccsszsszs" />
    <path
       style="fill:#4d4d4d;fill-rule:evenodd;stroke:none"
       d="m 1829,-35 c -6.9036,0 -12.5,5.59644 -12.5,12.5 0,6.90356 5.5964,12.5000002 12.5,12.5000002 6.9036,0 12.5,-5.5964402 12.5,-12.5000002 0,-6.90356 -5.5964,-12.5 -12.5,-12.5 z M 1804,-4.9999998 1804,15 l 10,0 0,40 -10,0 0,20 50,0 0,-20 -10,0 0,-59.9999998 z"
       id="path3564-1"
       inkscape:connector-curvature="0"
       sodipodi:nodetypes="sssssccccccccccc" />
    <path
       style="fill:#4d4d4d;fill-rule:evenodd;stroke:none"
       d="m 1866,-35 0,20 10,0 0,70 -10,0 0,20 60,0 0,-20 -20,0 0,-90 z"
       id="path3721-0"
       inkscape:connector-curvature="0"
       sodipodi:nodetypes="ccccccccccc" />
    <path
       style="fill:#4d4d4d;fill-opacity:1;fill-rule:evenodd;stroke:none"
       d="m 170,60.999801 0,20.0002 20,0 0,59.999999 -20,0 0,20 60,0 0,-20 -10,0 0,-40 30,60 10,0 30,-60 0,40 -10,0 0,20 60,0 0,-20 -20,0 0,-59.999999 20,0 0,-20.0002 -55,2e-4 L 255,121 225,61.000001 z"
       id="path3933-6-4-0-4"
       inkscape:connector-curvature="0"
       sodipodi:nodetypes="cccccccccccccccccccccccccc" />
    <path
       style="fill:#4d4d4d;fill-rule:evenodd;stroke:none"
       d="M 355,81.000001 355,106 l 25,0 0,-5 15,0 c 5,0 5,0 5,5 0,5 0,5 -5,5 l -25,0 c -15,0 -20,5 -20,20 l 0,10 c 0,15 5,20 20,20 l 30,0 c 5,0 10,-5 10,-10 0,5 5,10 10,10 l 20,0 0,-20 -10,0 0,-10 0,-30 c 0,-14.999999 -5,-19.999999 -20,-19.999999 l -20,0 c -10,0 -15,5 -15,15 l 0,-15 z M 385,131 l 10,0 c 5,0 5,0 5,5 0,5 0,5 -5,5 l -10,0 c -5,0 -5,0 -5,-5.0853 0,-5.0852 0,-4.9147 5,-4.9147 z"
       id="path3475-16"
       inkscape:connector-curvature="0"
       sodipodi:nodetypes="ccccssscccccccccccccccccsszsszs" />
    <path
       style="fill:#4d4d4d;fill-rule:evenodd;stroke:none"
       d="M 450,81.000001 450,101 l 10,0 0,40 -10,0 0,20 50,0 0,-20 -10,0 0,-30 c 0,-5 5,-10 10,-10 l 20,0 0,10 20,0 0,-29.999999 -15,0 0,15 c 0,-10 -5,-15 -10,-15 l -15,0 c -5,0 -10,5 -10,10 l 0,-10 z"
       id="path3825-1"
       inkscape:connector-curvature="0"
       sodipodi:nodetypes="cccccccccccccccccccccc" />
    <path
       style="fill:#4d4d4d;fill-rule:evenodd;stroke:none"
       d="m 660,81 -50,0 0,20 10,0 -15,30 -15,-30 10,0 0,-20 -50,0 0,20 10,0 35,60 20,0 35,-60 10,0 z"
       id="path4336-3-6-4"
       inkscape:connector-curvature="0"
       sodipodi:nodetypes="cccccccccccccccc" />
    <path
       style="fill:#4d4d4d;fill-rule:evenodd;stroke:none"
       d="m 690,81.000001 c -15,0 -20,5 -20,19.999999 l 0,40 c 0,15 5,20 20,20 l 30,0 c 5,0 10,-5 10,-10 l 0,10 20,0 0,-25 -25,0 -0.25,5 -19.75,0 c -5,0 -5,0 -5,-5 l 0,-5 25,0 25,0 0,-30 C 750,86.000001 745,81.000001 730,81.000001 z M 700,106 c 0,-5 0,-5 5,-5 l 14.5,0 c 5.5,0 5.5,0 5.5,5 l 0,5 -25,0 z"
       id="path3485-3-5"
       inkscape:connector-curvature="0"
       sodipodi:nodetypes="cccccccccccccccccccccccccc" />
    <path
       style="fill:#4d4d4d;fill-rule:evenodd;stroke:none"
       d="m 762,51.000001 0,20 10,0 0,69.999999 -10,0 0,20 60,0 0,-20 -20,0 0,-89.999999 z"
       id="path3721-2"
       inkscape:connector-curvature="0"
       sodipodi:nodetypes="ccccccccccc" />
    <path
       style="fill:#4d4d4d;fill-rule:evenodd;stroke:none"
       d="m 830,51.000001 0,20 10,0 0,69.999999 -10,0 0,20 60,0 0,-20 -20,0 0,-89.999999 z"
       id="path3721-3"
       inkscape:connector-curvature="0"
       sodipodi:nodetypes="ccccccccccc" />
    <path
       d="m 920.25,80.999801 44.75,2e-4 c 14.9626,0 19.8876,5 20,19.999999 l -0.25,40.0002 c -0.4495,15.0002 -4.8005,20.0001 -20,20 l -44.3005,-4e-4 C 905,161 900,156 900,141 l 0.25,-40.0002 c 0,-14.999999 5,-19.999999 20,-19.999999 z m 20,19.999999 c -10,0 -10,0 -10,10 L 930,131 c 0,10 0,10 10,10 l 4.75,2e-4 c 10,0 10,0 10,-10 l 0,-20 C 954.688,100.9996 955,101 945,101 z"
       id="path15-5-6-3"
       inkscape:connector-curvature="0"
       style="fill:#4a4a4a;fill-rule:evenodd"
       sodipodi:nodetypes="cccccccccccccccccc" />
    <path
       style="fill:#4d4d4d;fill-rule:evenodd;stroke:none"
       d="m 1093,161 0,-20 -10,0 0,-40 10,0 0,-19.999999 -45,0 0,19.999999 5,0 0,40 -15,0 c -5,0 -5,0 -5,-5 l 0,-35 5,0 0,-19.999999 -45,0 0,19.999999 10,0 0,40 c 0,15 5,20 20,20 l 20,0 c 5,0 10,-5 10,-10 l 0,10 z"
       id="path3723-9-0-6"
       inkscape:connector-curvature="0"
       sodipodi:nodetypes="cccccccccccccccccccccccc" />
    <path
       d="m 1125.7498,81.250501 30,0.03 c 10,0 15,5 15,15 l 0,-15 20.2502,-0.03 -0.2502,25.029499 -25,0 c 0,-5 0,-5 -5,-5 l -20,0 c -5,0 -5,0 -5,5 0,5 0,5 5,5 l 30.0001,-0.03 C 1185.75,111.25 1191,116 1191,131 l 0,10 c 0,15 -5,20 -20,20 l -30,0 c -10,0 -15,-5 -15,-15 l 0,15 -20,0 0,-25 25,0 c 0,5 0,5 5,5 l 20,0 c 5,0 5,0 5,-5 0,-5 -0.2502,-4.72 -5.2502,-4.72 l -30,0 c -15,1e-4 -20,-5 -20,-20 l 0,-10 c 0,-14.750299 5,-20.029499 20,-20.029499 z"
       id="Path 9-7-8"
       inkscape:connector-curvature="0"
       style="fill:#4a4a4a;fill-rule:evenodd"
       sodipodi:nodetypes="cccccccccscccccccccccccsccccc" />
    <path
       d="m 205.74986,181.0001 45,0.0295 c 10,0 15,5 15,15 l 0,-15 L 286,181 l -0.25014,35.0296 -25,0 0,-5 c 0,-10 0,-10 -10,-10 l -25,0 c -10,0 -10,0 -10,10 0,10 0.24998,10 10,10 l 40.00011,-0.0297 C 280.75,220.9999 286,225.74989 286,240.74989 l -0.25014,20.27976 c 0,15 -4.99997,20 -20,20 l -45,0 c -10,0 -15,-5 -15,-15 l 0,15 -20,0 1.1e-4,-35.02939 24.99989,0.0294 0,5 c 0,10 0,10 10,10 l 25,1e-5 c 10.25002,0 10,-4e-5 10,-10.00002 0,-10.00002 0.25002,-9.99999 -10,-9.99998 l -40.00007,3e-5 c -14.99993,0 -19.99993,-5.00005 -19.99993,-20.00005 l 0,-20 c 0,-14.75029 4.99997,-20.02955 20,-20.02955 z"
       id="Path 9-4"
       inkscape:connector-curvature="0"
       style="fill:#4a4a4a;fill-rule:evenodd"
       sodipodi:nodetypes="ccccccccccsccccccccccccccsccccc" />
    <path
       style="fill:#4d4d4d;fill-opacity:1;fill-rule:evenodd;stroke:none"
       d="m 298,181 0,20 20,0 0,60 -20,0 0,20 65,0 0,-20 -15,0 0,-40 40,60 30,0 3e-5,-80 19.99997,0 0,-20 -64.99997,0 0,20 15,0 -3e-5,40 -40,-60 z"
       id="path4130-8"
       inkscape:connector-curvature="0"
       sodipodi:nodetypes="ccccccccccccccccccccc" />
    <path
       style="fill:#4d4d4d;fill-rule:evenodd;stroke:none"
       d="m 452.99998,181 0,20 17.3221,0 -24.24157,60 -18.08053,0 0,20 65,0 0,-20 -16.91947,0 4.04026,-10 35.75841,0 4.0403,10 -16.9195,0 0,20 65.00003,0 0,-20 -18.0805,0 -31.91953,-80 z m 45,25.7474 9.79869,24.2526 -19.59738,0 z"
       id="path4846-3"
       inkscape:connector-curvature="0"
       sodipodi:nodetypes="ccccccccccccccccccccccc" />
    <path
       d="m 577.5,181.01485 0,20 20,0 -0.24996,59.97061 -19.75004,0 0,20.02939 70,0 0,-20.02939 -20,-3.1e-4 15,-15.00001 c 0,0 15,35.02971 45.49999,35.02973 l 14.50001,-2e-5 0,-20 -11.24976,0 C 672.5,261.01485 657.5,230.98514 657.5,230.98514 l 30,-30 15,0.0297 0,-20.02939 -55,0 0,20.02971 10,0 -30,29.99968 0,-30 10,0 0,-20.0297 z"
       id="Path 10-9"
       inkscape:connector-curvature="0"
       style="fill:#4a4a4a;fill-rule:evenodd"
       sodipodi:nodetypes="cccccccccccccccccccccccccc" />
    <path
       style="fill:#4d4d4d;fill-opacity:1;fill-rule:evenodd;stroke:none"
       d="m 715,181 75,0 c 10,0 15,5 15,15 l 0.44282,-15 19.55718,0 0,35 -25,0 0,-4.93521 C 800,201 800,201 790,201 l -25,0 0,20 20,0 0,20 -20,0 0,20 25,0 c 10,0 10,0 10,-10 l 0,-5 25,0 0,35 -20,0 0,-15 c 0,10 -5,15 -15,15 l -75,0 0,-20 20,0 0,-60 -20,0 z"
       id="path3070-7-2-5-2"
       inkscape:connector-curvature="0"
       sodipodi:nodetypes="ccccccccccccccccccccccccccccc" />
    <path
       d="m 886,181 60,0 c 14.96263,0 19.88763,5 20,20 l 0,60 c -0.44947,15.0002 -4.80048,20.0001 -20,20 l -59.55053,-2e-4 C 871,281 866,276 866,261 l 0,-60 c 0,-15 5,-20 20,-20 z m 20,20 c -10,0 -10,0 -10,10 l 0,40 c 0,10 0,10 10,10 l 20,0 c 10,0 10,0 10,-10 l -0.24999,-39.9998 C 935.68751,200.9996 936,201 926,201 z"
       id="path15-5-3"
       inkscape:connector-curvature="0"
       style="fill:#4a4a4a;fill-rule:evenodd"
       sodipodi:nodetypes="cccccccccccccccccc" />
    <path
       style="fill:#4d4d4d;fill-opacity:1;fill-rule:evenodd;stroke:none"
       d="m 1048,181 -70,0 0,20.0002 20,0 0,60 -20,0 0,20 70,0 0,-20 -20,0 0,-60 20,0 z"
       id="path3933-6-0"
       inkscape:connector-curvature="0"
       sodipodi:nodetypes="ccccccccccccc" />
    <path
       d="m 1130.491,180.9817 0,19.97065 -20,0 0.018,60.0953 29.9821,-0.0953 c 10,0 10,0 10.0233,-9.74995 l 0.013,-5.25005 24.9822,0.0953 0,35 -20.018,-0.0953 0,-15 c 0,10 -5,15 -15,15 l -80,0 0.018,-19.9047 20,0 -0.4104,-59.49486 -19.6076,-0.60044 0,-20 70,0.0298 z"
       id="Path 5-2-9"
       inkscape:connector-curvature="0"
       style="fill:#4a4a4a;fill-rule:evenodd"
       sodipodi:nodetypes="cccccccccccccccccccc" />
  </g>
</svg>
