<?xml version="1.0" encoding="UTF-8" standalone="no"?>
<!-- Created with Inkscape (http://www.inkscape.org/) -->

<svg
   xmlns:dc="http://purl.org/dc/elements/1.1/"
   xmlns:cc="http://creativecommons.org/ns#"
   xmlns:rdf="http://www.w3.org/1999/02/22-rdf-syntax-ns#"
   xmlns:svg="http://www.w3.org/2000/svg"
   xmlns="http://www.w3.org/2000/svg"
   xmlns:sodipodi="http://sodipodi.sourceforge.net/DTD/sodipodi-0.dtd"
   xmlns:inkscape="http://www.inkscape.org/namespaces/inkscape"
   width="1000"
   height="1000"
   id="svg3092"
   version="1.1"
   inkscape:version="0.48.2 r9819"
   sodipodi:docname="Capital C.svg">
  <defs
     id="defs5498" />
  <sodipodi:namedview
     inkscape:window-height="852"
     inkscape:window-width="1440"
     inkscape:pageshadow="2"
     inkscape:pageopacity="0.0"
     borderopacity="1.0"
     bordercolor="#666666"
     pagecolor="#ffffff"
     id="base"
     showgrid="true"
     showguides="true"
     inkscape:guide-bbox="true"
     inkscape:zoom="0.560381"
     inkscape:cx="335.52013"
     inkscape:cy="544.30994"
     inkscape:window-x="0"
     inkscape:window-y="0"
     inkscape:current-layer="layer1"
     inkscape:window-maximized="1">
    <sodipodi:guide
       orientation="horizontal"
       position="0,240"
       id="guide5596" />
    <inkscape:grid
       type="xygrid"
       id="grid3143"
       empspacing="4"
       visible="true"
       enabled="true"
       snapvisiblegridlinesonly="true"
       spacingx="30px"
       spacingy="30px" />
    <sodipodi:guide
       orientation="0,1"
       position="0,840"
       id="guide3188" />
    <sodipodi:guide
       orientation="0,1"
       position="0,720"
       id="guide3190" />
    <sodipodi:guide
       orientation="1,0"
       position="600,240"
       id="guide3192" />
  </sodipodi:namedview>
  <metadata
     id="metadata5594">
    <rdf:RDF>
      <cc:Work
         rdf:about="">
        <dc:format>image/svg+xml</dc:format>
        <dc:type
           rdf:resource="http://purl.org/dc/dcmitype/StillImage" />
        <dc:title />
      </cc:Work>
    </rdf:RDF>
  </metadata>
  <g
     inkscape:label="Layer 1"
     inkscape:groupmode="layer"
     id="layer1">
    <path
       d="M 0,159.9979 C 0,69.99808 30,39.9999 120.00006,40 l 269.99894,3e-4 c 59.99988,0 89.99982,29.99994 89.99982,89.99982 l 9.6e-4,-90.00006 120.00116,9.6e-4 -0.001,239.99904 -180,0 0,-27.44725 C 419.99988,190 419.99988,190 360,190 l -120.00012,0.004 C 180,190.00591 179.99975,190.00372 180,250.0036 l 0.001,299.99598 c 2.5e-4,59.99988 0,59.99979 59.99988,59.99988 l 119.9999,1.8e-4 c 59.99988,0 59.99988,0 59.99928,-59.85906 l 1.2e-4,-30.14052 179.9996,0 0,240 -120,0 0,-90 c 0,60 -30,90 -90,90 L 120.00006,760 C 30,759.99998 0,729.9991 0,639.99928 0,549.99946 0,250.00054 0,159.9979 z"
       id="path17"
       inkscape:connector-curvature="0"
       style="fill:#4a4a4a;fill-rule:evenodd"
       sodipodi:nodetypes="ssccccccccssssccccccccsss" />
  </g>
</svg>
