<?xml version="1.0" encoding="UTF-8" standalone="no"?>
<!-- Created with Inkscape (http://www.inkscape.org/) -->

<svg
   xmlns:dc="http://purl.org/dc/elements/1.1/"
   xmlns:cc="http://creativecommons.org/ns#"
   xmlns:rdf="http://www.w3.org/1999/02/22-rdf-syntax-ns#"
   xmlns:svg="http://www.w3.org/2000/svg"
   xmlns="http://www.w3.org/2000/svg"
   xmlns:sodipodi="http://sodipodi.sourceforge.net/DTD/sodipodi-0.dtd"
   xmlns:inkscape="http://www.inkscape.org/namespaces/inkscape"
   width="1000"
   height="1000"
   id="svg3092"
   version="1.1"
   inkscape:version="0.48.2 r9819"
   sodipodi:docname="Lower S.svg">
  <defs
     id="defs5498" />
  <sodipodi:namedview
     inkscape:window-height="852"
     inkscape:window-width="1440"
     inkscape:pageshadow="2"
     inkscape:pageopacity="0.0"
     borderopacity="1.0"
     bordercolor="#666666"
     pagecolor="#ffffff"
     id="base"
     showgrid="true"
     showguides="true"
     inkscape:guide-bbox="true"
     inkscape:zoom="0.70047766"
     inkscape:cx="461.45258"
     inkscape:cy="572.44732"
     inkscape:window-x="0"
     inkscape:window-y="0"
     inkscape:current-layer="layer1"
     inkscape:window-maximized="1">
    <sodipodi:guide
       orientation="horizontal"
       position="0,240"
       id="guide5596" />
    <inkscape:grid
       type="xygrid"
       id="grid3143"
       empspacing="4"
       visible="true"
       enabled="true"
       snapvisiblegridlinesonly="true"
       spacingx="30px"
       spacingy="30px" />
    <sodipodi:guide
       orientation="0,1"
       position="0,840"
       id="guide3188" />
    <sodipodi:guide
       orientation="0,1"
       position="0,720"
       id="guide3190" />
    <sodipodi:guide
       orientation="1,0"
       position="600,240"
       id="guide3192" />
  </sodipodi:namedview>
  <metadata
     id="metadata5594">
    <rdf:RDF>
      <cc:Work
         rdf:about="">
        <dc:format>image/svg+xml</dc:format>
        <dc:type
           rdf:resource="http://purl.org/dc/dcmitype/StillImage" />
        <dc:title />
      </cc:Work>
    </rdf:RDF>
  </metadata>
  <g
     inkscape:label="Layer 1"
     inkscape:groupmode="layer"
     id="layer1">
    <path
       d="m 115.10491,280.8451 187.81414,-1.03356 c 42.87273,-2.27166 60,30 60,60 l -1.88182,-59.1549 121.88182,-0.8451 0,150 -180,0 C 302.91905,399.71731 300.09423,400 270,400 l -64.61239,1.39959 C 177.83549,400.8451 180,400 180,430 c 0,30 -0.14866,30.82055 27.26943,31.02566 l 153.7678,-0.0863 c 90.28287,0 121.88182,28.58952 121.88182,118.87221 l 0,60 c 0,90.2827 -26.70385,120.28269 -116.98673,120.28269 L 180.2827,760.2827 C 150,760 120,730 120,700 l 0,60 L 1.5055543,760 0,610 l 180,0 c -3e-5,30.09423 -3e-5,30.09423 30.0942,30.09423 l 62.82485,-0.28269 c 30.09423,0 29.71731,-0.28269 30,-30 0.28269,-29.71731 -0.28269,-30.28269 -32.44787,-28.59741 l -153.48487,0.18846 C 26.704033,581.40319 -3.3902,551.30836 -3.3902,461.02566 l -1.88182,-59.62607 c 0,-88.7798 30.094052,-120.55449 120.37693,-120.55449 z"
       id="Path 9-7"
       inkscape:connector-curvature="0"
       style="fill:#4a4a4a;fill-rule:evenodd"
       sodipodi:nodetypes="ccccccccczccccccccccccczccccc" />
  </g>
</svg>
