<?xml version="1.0" encoding="UTF-8" standalone="no"?>
<!-- Created with Inkscape (http://www.inkscape.org/) -->

<svg
   xmlns:dc="http://purl.org/dc/elements/1.1/"
   xmlns:cc="http://creativecommons.org/ns#"
   xmlns:rdf="http://www.w3.org/1999/02/22-rdf-syntax-ns#"
   xmlns:svg="http://www.w3.org/2000/svg"
   xmlns="http://www.w3.org/2000/svg"
   xmlns:sodipodi="http://sodipodi.sourceforge.net/DTD/sodipodi-0.dtd"
   xmlns:inkscape="http://www.inkscape.org/namespaces/inkscape"
   width="1000"
   height="1000"
   id="svg3092"
   version="1.1"
   inkscape:version="0.48.2 r9819"
   sodipodi:docname="Numeral 6.svg">
  <defs
     id="defs5498" />
  <sodipodi:namedview
     inkscape:window-height="852"
     inkscape:window-width="1440"
     inkscape:pageshadow="2"
     inkscape:pageopacity="0.0"
     borderopacity="1.0"
     bordercolor="#666666"
     pagecolor="#ffffff"
     id="base"
     showgrid="true"
     showguides="true"
     inkscape:guide-bbox="true"
     inkscape:zoom="0.6545"
     inkscape:cx="500"
     inkscape:cy="591.83151"
     inkscape:window-x="0"
     inkscape:window-y="0"
     inkscape:current-layer="layer1"
     inkscape:window-maximized="1"
     inkscape:snap-grids="true">
    <sodipodi:guide
       orientation="horizontal"
       position="0,240"
       id="guide5596" />
    <inkscape:grid
       type="xygrid"
       id="grid3143"
       empspacing="4"
       visible="true"
       enabled="true"
       snapvisiblegridlinesonly="true"
       spacingx="30px"
       spacingy="30px" />
    <sodipodi:guide
       orientation="0,1"
       position="0,720"
       id="guide3190" />
    <sodipodi:guide
       orientation="1,0"
       position="600,240"
       id="guide3192" />
  </sodipodi:namedview>
  <metadata
     id="metadata5594">
    <rdf:RDF>
      <cc:Work
         rdf:about="">
        <dc:format>image/svg+xml</dc:format>
        <dc:type
           rdf:resource="http://purl.org/dc/dcmitype/StillImage" />
        <dc:title></dc:title>
      </cc:Work>
    </rdf:RDF>
  </metadata>
  <g
     inkscape:label="Layer 1"
     inkscape:groupmode="layer"
     id="layer1">
    <path
       style="fill:#4d4d4d;fill-rule:evenodd;stroke:none"
       d="m 419.76538,759.89598 c 89.92179,0 120.23462,-30 119.89572,-119.89571 L 540,160.31307 C 540,69.89598 510,39.89598 420.10428,40.41736 l -300,-0.41709 C 30,39.89598 -4.0647956e-7,69.89598 0.20854959,159.89598 l -0.20854999647944,210 c 0,90 30.00000040647944,120 119.76538040647943,119.58291 L 360,489.89598 l 0.0521,62.0722 c 0.049,58.35253 0,58.44918 -59.94787,58.44918 L 240,610 c -59.94782,0 -59.68717,0.33889 -59.68717,-59.609 l 0,-29.97391 L 0.4171,520.59958 0.18248,760 l 119.89573,0 0,-89.9218 C 120.07821,730.02608 150.05214,760 210,760 z m -59.76538,-450 -120,0 c -60,0 -60.30184,-2.3734 -59.69111,-58.27204 C 180.9833,189.89598 180,189.89598 240,189.89598 l 60.20855,0.41709 c 59.94787,0 59.97394,0 59.97394,59.94789 z"
       id="path7257"
       inkscape:connector-curvature="0"
       sodipodi:nodetypes="cccccccccsccccccccccccccccc" />
  </g>
</svg>
