<?xml version="1.0" encoding="UTF-8" standalone="no"?>
<!-- Created with Inkscape (http://www.inkscape.org/) -->

<svg
   xmlns:dc="http://purl.org/dc/elements/1.1/"
   xmlns:cc="http://creativecommons.org/ns#"
   xmlns:rdf="http://www.w3.org/1999/02/22-rdf-syntax-ns#"
   xmlns:svg="http://www.w3.org/2000/svg"
   xmlns="http://www.w3.org/2000/svg"
   xmlns:sodipodi="http://sodipodi.sourceforge.net/DTD/sodipodi-0.dtd"
   xmlns:inkscape="http://www.inkscape.org/namespaces/inkscape"
   width="1000"
   height="1000"
   id="svg3092"
   version="1.1"
   inkscape:version="0.48.2 r9819"
   sodipodi:docname="Numeral 7.svg">
  <defs
     id="defs5498" />
  <sodipodi:namedview
     inkscape:window-height="852"
     inkscape:window-width="1440"
     inkscape:pageshadow="2"
     inkscape:pageopacity="0.0"
     borderopacity="1.0"
     bordercolor="#666666"
     pagecolor="#ffffff"
     id="base"
     showgrid="true"
     showguides="true"
     inkscape:guide-bbox="true"
     inkscape:zoom="0.6545"
     inkscape:cx="500"
     inkscape:cy="591.83151"
     inkscape:window-x="0"
     inkscape:window-y="0"
     inkscape:current-layer="layer1"
     inkscape:window-maximized="1"
     inkscape:snap-grids="true">
    <sodipodi:guide
       orientation="horizontal"
       position="0,240"
       id="guide5596" />
    <inkscape:grid
       type="xygrid"
       id="grid3143"
       empspacing="4"
       visible="true"
       enabled="true"
       snapvisiblegridlinesonly="true"
       spacingx="30px"
       spacingy="30px" />
    <sodipodi:guide
       orientation="0,1"
       position="0,720"
       id="guide3190" />
    <sodipodi:guide
       orientation="1,0"
       position="600,240"
       id="guide3192" />
  </sodipodi:namedview>
  <metadata
     id="metadata5594">
    <rdf:RDF>
      <cc:Work
         rdf:about="">
        <dc:format>image/svg+xml</dc:format>
        <dc:type
           rdf:resource="http://purl.org/dc/dcmitype/StillImage" />
        <dc:title></dc:title>
      </cc:Work>
    </rdf:RDF>
  </metadata>
  <g
     inkscape:label="Layer 1"
     inkscape:groupmode="layer"
     id="layer1">
    <path
       style="fill:#4d4d4d;fill-rule:evenodd;stroke:none"
       d="M 120,40 C 30.040899,40 0.05453,69.98637 0.05453,159.94547 L 0.12268,340 c 0,29.98637 29.986369,59.97273 59.972737,59.97273 -29.986368,0 -59.972737,29.98637 -59.972737,59.97274 L 0,639.7819 c 0,89.9591 29.986369,119.94547 119.94547,119.94547 l 299.85005,0.0273 C 499.75915,763.75301 539.741,723.77099 539.741,639.80916 l 0.12268,-179.83643 c 0,-29.98637 -29.98637,-59.97274 -59.97274,-59.97274 29.98637,0 59.97274,-29.98636 59.97274,-59.97273 l -0.0682,-180.05453 c 0,-89.9591 -29.98637,-119.94547 -119.94548,-119.94547 z m 120.01363,150 59.9591,0.0273 c 59.97273,0 60,0.0273 60,60 C 359.97273,310 359.97273,310 300,310 l -59.9591,-0.0273 c -59.97274,0 -59.97274,0 -59.97274,-59.97274 0,-59.97274 -0.0273,-60 59.94547,-60 z m 0,300 59.9591,0.0273 c 59.97273,0 60,0.0273 60,60 C 359.97273,610 359.97273,610 300,610 l -59.9591,-0.0273 c -59.97274,0 -59.97274,0 -59.97274,-59.97274 0,-59.97274 -0.0273,-60 59.94547,-60 z"
       id="path7264"
       inkscape:connector-curvature="0"
       sodipodi:nodetypes="ccccccccccccccccccccccccccccc" />
  </g>
</svg>
