<?xml version="1.0" encoding="UTF-8" standalone="no"?>
<!-- Created with Inkscape (http://www.inkscape.org/) -->

<svg
   xmlns:dc="http://purl.org/dc/elements/1.1/"
   xmlns:cc="http://creativecommons.org/ns#"
   xmlns:rdf="http://www.w3.org/1999/02/22-rdf-syntax-ns#"
   xmlns:svg="http://www.w3.org/2000/svg"
   xmlns="http://www.w3.org/2000/svg"
   xmlns:sodipodi="http://sodipodi.sourceforge.net/DTD/sodipodi-0.dtd"
   xmlns:inkscape="http://www.inkscape.org/namespaces/inkscape"
   width="1000"
   height="1000"
   id="svg3092"
   version="1.1"
   inkscape:version="0.48.2 r9819"
   sodipodi:docname="Numeral 1.svg">
  <defs
     id="defs5498" />
  <sodipodi:namedview
     inkscape:window-height="852"
     inkscape:window-width="1440"
     inkscape:pageshadow="2"
     inkscape:pageopacity="0.0"
     borderopacity="1.0"
     bordercolor="#666666"
     pagecolor="#ffffff"
     id="base"
     showgrid="true"
     showguides="true"
     inkscape:guide-bbox="true"
     inkscape:zoom="0.56038213"
     inkscape:cx="399.47098"
     inkscape:cy="530.71616"
     inkscape:window-x="0"
     inkscape:window-y="0"
     inkscape:current-layer="layer1"
     inkscape:window-maximized="1"
     inkscape:snap-grids="true">
    <sodipodi:guide
       orientation="horizontal"
       position="0,240"
       id="guide5596" />
    <inkscape:grid
       type="xygrid"
       id="grid3143"
       empspacing="4"
       visible="true"
       enabled="true"
       snapvisiblegridlinesonly="true"
       spacingx="30px"
       spacingy="30px" />
    <sodipodi:guide
       orientation="0,1"
       position="0,720"
       id="guide3190" />
    <sodipodi:guide
       orientation="1,0"
       position="600,240"
       id="guide3192" />
  </sodipodi:namedview>
  <metadata
     id="metadata5594">
    <rdf:RDF>
      <cc:Work
         rdf:about="">
        <dc:format>image/svg+xml</dc:format>
        <dc:type
           rdf:resource="http://purl.org/dc/dcmitype/StillImage" />
        <dc:title></dc:title>
      </cc:Work>
    </rdf:RDF>
  </metadata>
  <g
     inkscape:label="Layer 1"
     inkscape:groupmode="layer"
     id="layer1">
    <path
       style="fill:#4d4d4d;fill-rule:evenodd;stroke:none"
       d="M 0.78851121,760 C 0.78851121,760 0,629.9998 0,580 -0.78851121,370 360.78851,370 360,250.5604 360,191.1208 360,190 300,190 l -59.21149,0 c -60,0 -60,0 -60,58.4388 l 0,31.5612 -180,0 L 0,40 l 120,0 0,90 c 0,-60 30,-90 90,-90 l 209.21149,0 C 510,40 540,70 540,160 l 0,120 c 0,120 -360,210 -359.21149,300 l 0,30 c 0,0 59.21149,0 119.21149,0 60,0 60,0 60,-57.6096 L 360,520 l 180,0 0,240 -120,0 0,-90 c 0,60 -30,90 -90,90 z"
       id="path7246"
       inkscape:connector-curvature="0"
       sodipodi:nodetypes="ccccccccccccccccczcccccccc" />
  </g>
</svg>
