<?xml version="1.0" encoding="UTF-8" standalone="no"?>
<!-- Created with Inkscape (http://www.inkscape.org/) -->

<svg
   xmlns:dc="http://purl.org/dc/elements/1.1/"
   xmlns:cc="http://creativecommons.org/ns#"
   xmlns:rdf="http://www.w3.org/1999/02/22-rdf-syntax-ns#"
   xmlns:svg="http://www.w3.org/2000/svg"
   xmlns="http://www.w3.org/2000/svg"
   xmlns:sodipodi="http://sodipodi.sourceforge.net/DTD/sodipodi-0.dtd"
   xmlns:inkscape="http://www.inkscape.org/namespaces/inkscape"
   width="1000"
   height="1000"
   id="svg4984"
   version="1.1"
   inkscape:version="0.48.2 r9819"
   sodipodi:docname="Capital S.svg">
  <defs
     id="defs5498" />
  <sodipodi:namedview
     inkscape:window-height="852"
     inkscape:window-width="1440"
     inkscape:pageshadow="2"
     inkscape:pageopacity="0.0"
     borderopacity="1.0"
     bordercolor="#666666"
     pagecolor="#ffffff"
     id="base"
     showgrid="false"
     showguides="true"
     inkscape:guide-bbox="true"
     inkscape:zoom="0.5"
     inkscape:cx="580"
     inkscape:cy="547.74864"
     inkscape:window-x="0"
     inkscape:window-y="0"
     inkscape:current-layer="layer1"
     inkscape:window-maximized="1">
    <sodipodi:guide
       orientation="horizontal"
       position="200"
       id="guide5596" />
    <inkscape:grid
       type="xygrid"
       id="grid5609" />
  </sodipodi:namedview>
  <metadata
     id="metadata5594">
    <rdf:RDF>
      <cc:Work
         rdf:about="">
        <dc:format>image/svg+xml</dc:format>
        <dc:type
           rdf:resource="http://purl.org/dc/dcmitype/StillImage" />
        <dc:title></dc:title>
      </cc:Work>
    </rdf:RDF>
  </metadata>
  <g
     inkscape:label="Layer 1"
     inkscape:groupmode="layer"
     id="layer1">
    <path
       d="m 119.96448,200.0003 239.92896,0.17695 c 59.98223,3e-4 89.97335,3e-4 89.97335,89.97336 L 449.86745,200 l 121.46422,0 -1.5004,180.12427 -179.94671,0 1.49985,-59.98224 -151.45545,0 c -59.98224,0 -59.98224,0 -59.98224,59.98224 0,59.98223 1.49943,59.98223 59.98224,59.98223 l 209.93849,-0.17814 c 89.97354,0 121.46422,28.4915 121.46422,118.46486 l -1.5004,121.6423 C 569.83127,770.00888 539.84033,800 449.86679,800 l -239.92895,-6e-5 c -59.98224,0 -89.97336,0 -89.97336,-89.97336 L 119.96382,800 1.4985963,800 l 6.598e-4,-181.62268 179.9471339,0 0,61.48191 148.45593,0.17635 c 61.48191,0 59.98224,-2.4e-4 59.98224,-59.98236 0,-59.98236 1.49967,-59.98218 -59.98224,-59.98212 l -209.93826,1.2e-4 C 29.99112,560.07128 0,530.07986 0,440.1065 L 0,320.14203 C 0,231.66648 29.99094,200.0003 119.96448,200.0003 z"
       id="Path 9"
       inkscape:connector-curvature="0"
       style="fill:#4a4a4a;fill-rule:evenodd"
       sodipodi:nodetypes="cccccccccscccccccccccccsccccc" />
  </g>
</svg>
