<?xml version="1.0" encoding="UTF-8" standalone="no"?>
<!-- Created with Inkscape (http://www.inkscape.org/) -->

<svg
   xmlns:dc="http://purl.org/dc/elements/1.1/"
   xmlns:cc="http://creativecommons.org/ns#"
   xmlns:rdf="http://www.w3.org/1999/02/22-rdf-syntax-ns#"
   xmlns:svg="http://www.w3.org/2000/svg"
   xmlns="http://www.w3.org/2000/svg"
   xmlns:sodipodi="http://sodipodi.sourceforge.net/DTD/sodipodi-0.dtd"
   xmlns:inkscape="http://www.inkscape.org/namespaces/inkscape"
   width="1000"
   height="1000"
   id="svg4984"
   version="1.1"
   inkscape:version="0.48.2 r9819"
   sodipodi:docname="Capital A.svg">
  <defs
     id="defs5498" />
  <sodipodi:namedview
     inkscape:window-height="852"
     inkscape:window-width="1440"
     inkscape:pageshadow="2"
     inkscape:pageopacity="0.0"
     borderopacity="1.0"
     bordercolor="#666666"
     pagecolor="#ffffff"
     id="base"
     showgrid="false"
     showguides="true"
     inkscape:guide-bbox="true"
     inkscape:zoom="0.5"
     inkscape:cx="580"
     inkscape:cy="547.74864"
     inkscape:window-x="0"
     inkscape:window-y="0"
     inkscape:current-layer="layer1"
     inkscape:window-maximized="1">
    <sodipodi:guide
       orientation="horizontal"
       position="200"
       id="guide5596" />
    <inkscape:grid
       type="xygrid"
       id="grid5609" />
  </sodipodi:namedview>
  <metadata
     id="metadata5594">
    <rdf:RDF>
      <cc:Work
         rdf:about="">
        <dc:format>image/svg+xml</dc:format>
        <dc:type
           rdf:resource="http://purl.org/dc/dcmitype/StillImage" />
        <dc:title></dc:title>
      </cc:Work>
    </rdf:RDF>
  </metadata>
  <g
     inkscape:label="Layer 1"
     inkscape:groupmode="layer"
     id="layer1">
    <path
       d="M 6.5999822e-4,320.0001 C 6.5999822e-4,230.0007 30.000399,200 119.99998,200 c 32.22417,0 209.99925,0.001 269.99897,0.001 89.99975,0 89.99975,89.99976 89.99975,89.99976 L 479.9981,200 l 119.99938,0 4.2e-4,179.99951 -179.99903,0 0,-59.99863 c 0,0 -149.99966,0 -179.99952,0 -59.99984,0 -59.99984,0 -59.99984,59.99983 0,30.0007 0,209.91898 0,239.99936 0,59.99983 0,60.00061 59.99984,59.99983 l 179.9991,-0.002 4.2e-4,-119.99727 -149.9996,0 -4.2e-4,-121.50111 329.99863,0 -6.6e-4,361.50088 -119.99938,0 0.001,-90.00018 c 0,0 0,89.99976 -89.99975,89.99976 C 329.99923,799.99958 148.03904,800 119.99932,800 29.999739,800 0,769.99948 0,679.9999 0,590.00057 6.5999822e-4,409.99943 6.5999822e-4,320.0001 z"
       id="path19"
       inkscape:connector-curvature="0"
       style="fill:#4a4a4a;fill-rule:evenodd"
       sodipodi:nodetypes="sssccccccssssccccccccssss" />
  </g>
</svg>
