<?xml version="1.0" encoding="UTF-8" standalone="no"?>
<!-- Created with Inkscape (http://www.inkscape.org/) -->

<svg
   xmlns:dc="http://purl.org/dc/elements/1.1/"
   xmlns:cc="http://creativecommons.org/ns#"
   xmlns:rdf="http://www.w3.org/1999/02/22-rdf-syntax-ns#"
   xmlns:svg="http://www.w3.org/2000/svg"
   xmlns="http://www.w3.org/2000/svg"
   xmlns:sodipodi="http://sodipodi.sourceforge.net/DTD/sodipodi-0.dtd"
   xmlns:inkscape="http://www.inkscape.org/namespaces/inkscape"
   width="1000"
   height="1000"
   id="svg4984"
   version="1.1"
   inkscape:version="0.48.2 r9819"
   sodipodi:docname="Capital C.svg">
  <defs
     id="defs5498" />
  <sodipodi:namedview
     inkscape:window-height="852"
     inkscape:window-width="1440"
     inkscape:pageshadow="2"
     inkscape:pageopacity="0.0"
     borderopacity="1.0"
     bordercolor="#666666"
     pagecolor="#ffffff"
     id="base"
     showgrid="false"
     showguides="true"
     inkscape:guide-bbox="true"
     inkscape:zoom="0.5"
     inkscape:cx="580"
     inkscape:cy="547.74864"
     inkscape:window-x="0"
     inkscape:window-y="0"
     inkscape:current-layer="layer1"
     inkscape:window-maximized="1">
    <sodipodi:guide
       orientation="horizontal"
       position="200"
       id="guide5596" />
    <inkscape:grid
       type="xygrid"
       id="grid5609" />
  </sodipodi:namedview>
  <metadata
     id="metadata5594">
    <rdf:RDF>
      <cc:Work
         rdf:about="">
        <dc:format>image/svg+xml</dc:format>
        <dc:type
           rdf:resource="http://purl.org/dc/dcmitype/StillImage" />
        <dc:title></dc:title>
      </cc:Work>
    </rdf:RDF>
  </metadata>
  <g
     inkscape:label="Layer 1"
     inkscape:groupmode="layer"
     id="layer1">
    <path
       d="m 0.29970195,200 c 0,0 447.26257805,0 536.98505805,0 89.72248,0 122.02582,30.55083 122.32427,120.285 l 1.19653,359.78529 C 661.10478,770.01637 630.82325,800 539.68028,800 L 2.6952188,800 0,680.42534 l 119.62995,0 9e-4,-360.14034 -119.62995053437,0 z M 298.32409,320.64191 l -9e-4,359.42934 c 0,0 91.44603,0 121.42834,0 59.96437,0 61.34787,-29.98183 61.16042,-59.96438 l -1.49497,-239.14338 c -0.37478,-59.9642 0,-59.96438 -59.96438,-59.96438 -28.48313,0 -121.12863,-0.35738 -121.12863,-0.35738 z"
       id="path15"
       inkscape:connector-curvature="0"
       style="fill:#4a4a4a;fill-rule:evenodd"
       sodipodi:nodetypes="cssssccccccccsssscc" />
  </g>
</svg>
