<?xml version="1.0" encoding="UTF-8" standalone="no"?>
<!-- Created with Inkscape (http://www.inkscape.org/) -->

<svg
   xmlns:dc="http://purl.org/dc/elements/1.1/"
   xmlns:cc="http://creativecommons.org/ns#"
   xmlns:rdf="http://www.w3.org/1999/02/22-rdf-syntax-ns#"
   xmlns:svg="http://www.w3.org/2000/svg"
   xmlns="http://www.w3.org/2000/svg"
   xmlns:sodipodi="http://sodipodi.sourceforge.net/DTD/sodipodi-0.dtd"
   xmlns:inkscape="http://www.inkscape.org/namespaces/inkscape"
   width="1000"
   height="1000"
   id="svg4984"
   version="1.1"
   inkscape:version="0.48.2 r9819"
   sodipodi:docname="Capital G.svg">
  <defs
     id="defs5498" />
  <sodipodi:namedview
     inkscape:window-height="852"
     inkscape:window-width="1440"
     inkscape:pageshadow="2"
     inkscape:pageopacity="0.0"
     borderopacity="1.0"
     bordercolor="#666666"
     pagecolor="#ffffff"
     id="base"
     showgrid="false"
     showguides="true"
     inkscape:guide-bbox="true"
     inkscape:zoom="0.5"
     inkscape:cx="580"
     inkscape:cy="547.74864"
     inkscape:window-x="0"
     inkscape:window-y="0"
     inkscape:current-layer="layer1"
     inkscape:window-maximized="1">
    <sodipodi:guide
       orientation="horizontal"
       position="200"
       id="guide5596" />
    <inkscape:grid
       type="xygrid"
       id="grid5609" />
  </sodipodi:namedview>
  <metadata
     id="metadata5594">
    <rdf:RDF>
      <cc:Work
         rdf:about="">
        <dc:format>image/svg+xml</dc:format>
        <dc:type
           rdf:resource="http://purl.org/dc/dcmitype/StillImage" />
        <dc:title></dc:title>
      </cc:Work>
    </rdf:RDF>
  </metadata>
  <g
     inkscape:label="Layer 1"
     inkscape:groupmode="layer"
     id="layer1">
    <path
       d="M 0,319.9979 C 0,229.99808 30,200 120.00006,200 c 32.22432,0 209.99922,2.4e-4 269.99916,2.4e-4 89.99982,0 89.99982,89.99982 89.99982,89.99982 L 480,200 l 120,0 -0.001,179.99988 -179.99964,0.002 0,-60.0018 c 0,0 -150.00042,0.001 -180.00042,0.001 -59.99988,0 -59.99988,0 -59.99988,59.99988 0,30.0009 0,209.91588 0,239.9964 0,59.99988 0,59.99922 59.99988,59.99988 l 180.00042,0.002 0,-59.99988 180.00006,0 c 0,0 7.8e-4,-29.99994 7.8e-4,59.99988 C 600,769.9991 570,800 480,800 390.00006,800 148.03992,800 120.00006,800 30,800 0,769.9991 0,679.99928 0,589.99946 0,410.00054 0,319.9979 z"
       id="path17"
       inkscape:connector-curvature="0"
       style="fill:#4a4a4a;fill-rule:evenodd"
       sodipodi:nodetypes="sssccccccsssscccsssss" />
  </g>
</svg>
