<?xml version="1.0" encoding="UTF-8" standalone="no"?>
<!-- Created with Inkscape (http://www.inkscape.org/) -->

<svg
   xmlns:dc="http://purl.org/dc/elements/1.1/"
   xmlns:cc="http://creativecommons.org/ns#"
   xmlns:rdf="http://www.w3.org/1999/02/22-rdf-syntax-ns#"
   xmlns:svg="http://www.w3.org/2000/svg"
   xmlns="http://www.w3.org/2000/svg"
   xmlns:sodipodi="http://sodipodi.sourceforge.net/DTD/sodipodi-0.dtd"
   xmlns:inkscape="http://www.inkscape.org/namespaces/inkscape"
   width="1000"
   height="1000"
   id="svg3092"
   version="1.1"
   inkscape:version="0.48.2 r9819"
   sodipodi:docname="Capital R.svg">
  <defs
     id="defs5498" />
  <sodipodi:namedview
     inkscape:window-height="852"
     inkscape:window-width="1440"
     inkscape:pageshadow="2"
     inkscape:pageopacity="0.0"
     borderopacity="1.0"
     bordercolor="#666666"
     pagecolor="#ffffff"
     id="base"
     showgrid="true"
     showguides="true"
     inkscape:guide-bbox="true"
     inkscape:zoom="0.558333"
     inkscape:cx="321.28386"
     inkscape:cy="444.86975"
     inkscape:window-x="0"
     inkscape:window-y="22"
     inkscape:current-layer="layer1"
     inkscape:window-maximized="0">
    <sodipodi:guide
       orientation="horizontal"
       position="0,240"
       id="guide5596" />
    <inkscape:grid
       type="xygrid"
       id="grid3143"
       empspacing="4"
       visible="true"
       enabled="true"
       snapvisiblegridlinesonly="true"
       spacingx="30px"
       spacingy="30px" />
    <sodipodi:guide
       orientation="0,1"
       position="0,840"
       id="guide3188" />
    <sodipodi:guide
       orientation="0,1"
       position="0,720"
       id="guide3190" />
    <sodipodi:guide
       orientation="1,0"
       position="600,240"
       id="guide3192" />
  </sodipodi:namedview>
  <metadata
     id="metadata5594">
    <rdf:RDF>
      <cc:Work
         rdf:about="">
        <dc:format>image/svg+xml</dc:format>
        <dc:type
           rdf:resource="http://purl.org/dc/dcmitype/StillImage" />
        <dc:title></dc:title>
      </cc:Work>
    </rdf:RDF>
  </metadata>
  <g
     inkscape:label="Layer 1"
     inkscape:groupmode="layer"
     id="layer1">
    <path
       d="m 119.96443,160.0006 269.91997,0.17695 c 59.98221,0 89.97332,29.9911 89.97332,89.97332 l 0,-89.97332 L 600,160 l 0,210 -150.13339,0.1153 0,-29.99111 c 0,-59.98221 0,-59.98221 -59.98221,-59.98221 l -149.95554,0 c -59.98221,0 -59.98221,0 -59.98221,59.98221 0,59.98222 1.49943,59.98222 59.98221,59.98222 l 239.92952,-0.17815 c 89.9735,0 121.46417,28.49149 121.46417,118.46482 L 600,640 c 0,89.97332 -30.16877,120 -120.14228,120 l -269.91997,0 c -59.98221,0 -89.97332,-29.99111 -89.97332,-89.97332 L 120,760 0,760 6.5980437e-4,549.88596 149.95554,550.06231 l 0,29.9911 c 0,59.98222 0,59.98222 59.98221,59.98222 l 149.95554,6e-5 c 61.48189,0 59.98222,-2.4e-4 59.98222,-59.98234 0,-59.98233 1.49967,-59.98215 -59.98222,-59.98209 l -239.92928,1.8e-4 C 29.991108,520.07144 0,490.08003 0,400.10671 L 0,280.14228 C 0,191.66677 29.990928,160.0006 119.96443,160.0006 z"
       id="Path 9"
       inkscape:connector-curvature="0"
       style="fill:#4a4a4a;fill-rule:evenodd"
       sodipodi:nodetypes="ccccccccccsccccccccccccccsccccc" />
  </g>
</svg>
