<?xml version="1.0" encoding="UTF-8" standalone="no"?>
<!-- Created with Inkscape (http://www.inkscape.org/) -->

<svg
   xmlns:dc="http://purl.org/dc/elements/1.1/"
   xmlns:cc="http://creativecommons.org/ns#"
   xmlns:rdf="http://www.w3.org/1999/02/22-rdf-syntax-ns#"
   xmlns:svg="http://www.w3.org/2000/svg"
   xmlns="http://www.w3.org/2000/svg"
   xmlns:sodipodi="http://sodipodi.sourceforge.net/DTD/sodipodi-0.dtd"
   xmlns:inkscape="http://www.inkscape.org/namespaces/inkscape"
   width="1000"
   height="1000"
   id="svg3092"
   version="1.1"
   inkscape:version="0.48.2 r9819"
   sodipodi:docname="New document 4">
  <defs
     id="defs5498" />
  <sodipodi:namedview
     inkscape:window-height="852"
     inkscape:window-width="1440"
     inkscape:pageshadow="2"
     inkscape:pageopacity="0.0"
     borderopacity="1.0"
     bordercolor="#666666"
     pagecolor="#ffffff"
     id="base"
     showgrid="true"
     showguides="true"
     inkscape:guide-bbox="true"
     inkscape:zoom="0.5"
     inkscape:cx="356.09863"
     inkscape:cy="562.20151"
     inkscape:window-x="0"
     inkscape:window-y="0"
     inkscape:current-layer="layer1"
     inkscape:window-maximized="1">
    <sodipodi:guide
       orientation="horizontal"
       position="0,240"
       id="guide5596" />
    <inkscape:grid
       type="xygrid"
       id="grid3143"
       empspacing="4"
       visible="true"
       enabled="true"
       snapvisiblegridlinesonly="true"
       spacingx="30px"
       spacingy="30px" />
    <sodipodi:guide
       orientation="0,1"
       position="0,840"
       id="guide3188" />
    <sodipodi:guide
       orientation="0,1"
       position="0,720"
       id="guide3190" />
    <sodipodi:guide
       orientation="1,0"
       position="600,240"
       id="guide3192" />
  </sodipodi:namedview>
  <metadata
     id="metadata5594">
    <rdf:RDF>
      <cc:Work
         rdf:about="">
        <dc:format>image/svg+xml</dc:format>
        <dc:type
           rdf:resource="http://purl.org/dc/dcmitype/StillImage" />
        <dc:title></dc:title>
      </cc:Work>
    </rdf:RDF>
  </metadata>
  <g
     inkscape:label="Layer 1"
     inkscape:groupmode="layer"
     id="layer1">
    <path
       d="m 119.70058,160.0003 269.3263,0.17725 c 59.8503,0 89.77544,29.99112 89.77544,89.97337 l 0,-89.97337 L 600,160 l 0,210 -151.12282,0.11541 0,-29.99113 c 0,-59.98224 0,-59.98224 -59.8503,-59.98224 l -149.62572,0 c -59.85028,0 -59.85028,0 -59.85028,59.98224 0,59.98225 1.49613,59.98225 59.85028,59.98225 l 239.40182,-0.17815 C 568.5786,399.92838 600,430.02663 600,520 l 0,120 c 0,89.97337 -31.42206,120 -121.19768,120 l -269.3263,0 c -59.8503,0 -89.77544,-29.99112 -89.77544,-89.97337 l 0,89.97337 L 0,760 6.5834851e-4,549.88585 150,550 l -0.37428,30.05326 c 0,59.98225 0,59.98225 59.8503,59.98225 l 149.62572,6e-5 c 61.34667,0 59.8503,-2.4e-4 59.8503,-59.98237 0,-59.98236 1.49637,-59.98218 -59.8503,-59.98212 l -239.40158,1.8e-4 C 29.925146,520.07132 0,490.0799 0,400.10653 L 0,280.14204 C 0,191.66649 29.924966,160.0003 119.70058,160.0003 z"
       id="Path 9"
       inkscape:connector-curvature="0"
       style="fill:#4a4a4a;fill-rule:evenodd"
       sodipodi:nodetypes="ccccccccccsccccccccccccccsccccc" />
  </g>
</svg>
