<?xml version="1.0" encoding="UTF-8" standalone="no"?>
<!-- Created with Inkscape (http://www.inkscape.org/) -->

<svg
   xmlns:dc="http://purl.org/dc/elements/1.1/"
   xmlns:cc="http://creativecommons.org/ns#"
   xmlns:rdf="http://www.w3.org/1999/02/22-rdf-syntax-ns#"
   xmlns:svg="http://www.w3.org/2000/svg"
   xmlns="http://www.w3.org/2000/svg"
   xmlns:sodipodi="http://sodipodi.sourceforge.net/DTD/sodipodi-0.dtd"
   xmlns:inkscape="http://www.inkscape.org/namespaces/inkscape"
   width="1000"
   height="1000"
   id="svg3092"
   version="1.1"
   inkscape:version="0.48.2 r9819"
   sodipodi:docname="Lower R.svg">
  <defs
     id="defs5498" />
  <sodipodi:namedview
     inkscape:window-height="852"
     inkscape:window-width="1440"
     inkscape:pageshadow="2"
     inkscape:pageopacity="0.0"
     borderopacity="1.0"
     bordercolor="#666666"
     pagecolor="#ffffff"
     id="base"
     showgrid="true"
     showguides="true"
     inkscape:guide-bbox="true"
     inkscape:zoom="0.4953125"
     inkscape:cx="558.93502"
     inkscape:cy="451.31167"
     inkscape:window-x="69"
     inkscape:window-y="0"
     inkscape:current-layer="layer1"
     inkscape:window-maximized="0">
    <sodipodi:guide
       orientation="horizontal"
       position="0,240"
       id="guide5596" />
    <inkscape:grid
       type="xygrid"
       id="grid3143"
       empspacing="4"
       visible="true"
       enabled="true"
       snapvisiblegridlinesonly="true"
       spacingx="30px"
       spacingy="30px" />
    <sodipodi:guide
       orientation="0,1"
       position="0,840"
       id="guide3188" />
    <sodipodi:guide
       orientation="0,1"
       position="0,720"
       id="guide3190" />
    <sodipodi:guide
       orientation="1,0"
       position="600,240"
       id="guide3192" />
  </sodipodi:namedview>
  <metadata
     id="metadata5594">
    <rdf:RDF>
      <cc:Work
         rdf:about="">
        <dc:format>image/svg+xml</dc:format>
        <dc:type
           rdf:resource="http://purl.org/dc/dcmitype/StillImage" />
        <dc:title></dc:title>
      </cc:Work>
    </rdf:RDF>
  </metadata>
  <g
     inkscape:label="Layer 1"
     inkscape:groupmode="layer"
     id="layer1">
    <path
       d="m 120.37693,280 180.5654,0.18057 c 60.18846,0 90.28269,30.09423 90.28269,90.28269 l 0,-90.28269 L 513.10751,280 l -1.50556,150.64872 -150.47116,0 c 0,-30.09423 0,-30.09423 -30.09423,-30.09423 l -120.37693,0 c -30.09423,0 -30.09423,0 -30.09423,30.09423 0,30.09423 0,30.09423 30.09423,30.09423 l 180.56606,-0.18056 c 90.28287,0 121.88182,28.58952 121.88182,118.87221 l 0,60.18847 C 513.10751,729.90577 483.01346,760 392.73058,760 l -180.5654,0 c -60.18846,0 -90.2827,-30.09423 -90.2827,-90.2827 l 0,90.2827 -120.3769257,0 0,-150.47116 150.4711657,0 c 0,30.09423 0,30.09423 30.09423,30.09423 l 120.37693,0 c 30.09423,0 30.09423,0 30.09423,-30.09423 0,-30.09424 -1.50555,-28.40896 -31.59978,-28.40896 l -180.56582,0 C 30.094233,581.12048 0,551.02565 0,460.74295 L 0,400.55449 C 0,311.77469 30.094052,280 120.37693,280 z"
       id="Path 9-7"
       inkscape:connector-curvature="0"
       style="fill:#4a4a4a;fill-rule:evenodd"
       sodipodi:nodetypes="cccccccccscccccccccccccsccccc" />
  </g>
</svg>
